<svg xmlns="http://www.w3.org/2000/svg" xmlns:xlink="http://www.w3.org/1999/xlink" width="500" zoomAndPan="magnify" viewBox="0 0 375 374.999991" height="500" preserveAspectRatio="xMidYMid meet" version="1.0"><defs><g/><clipPath id="f872a5b08d"><path d="M 46.417969 72.695312 L 328.417969 72.695312 L 328.417969 302.195312 L 46.417969 302.195312 Z M 46.417969 72.695312 " clip-rule="nonzero"/></clipPath><clipPath id="ef9250090a"><path d="M 145.898438 89.199219 L 229.148438 89.199219 L 229.148438 172.449219 L 145.898438 172.449219 Z M 145.898438 89.199219 " clip-rule="nonzero"/></clipPath></defs><g clip-path="url(#f872a5b08d)"><path fill="#f4c87a" d="M 318.851562 237.648438 C 317.144531 237.648438 315.367188 237.648438 313.660156 237.648438 C 297.882812 237.648438 282.039062 237.648438 266.261719 237.648438 C 248.234375 237.648438 230.203125 237.648438 212.105469 237.648438 C 193.394531 237.648438 174.679688 237.648438 155.898438 237.648438 C 138.074219 237.648438 120.179688 237.648438 102.355469 237.648438 C 86.851562 237.648438 71.417969 237.648438 55.914062 237.648438 C 54.480469 237.648438 54.480469 235.394531 55.914062 235.394531 C 57.621094 235.394531 59.398438 235.394531 61.105469 235.394531 C 76.882812 235.394531 92.726562 235.394531 108.5 235.394531 C 126.53125 235.394531 144.5625 235.394531 162.660156 235.394531 C 181.371094 235.394531 200.085938 235.394531 218.867188 235.394531 C 236.691406 235.394531 254.585938 235.394531 272.410156 235.394531 C 287.914062 235.394531 303.347656 235.394531 318.851562 235.394531 C 320.285156 235.394531 320.285156 237.648438 318.851562 237.648438 Z M 291.125 260.664062 C 274.730469 260.664062 258.339844 260.664062 242.019531 260.664062 C 229.792969 260.664062 217.636719 260.664062 205.414062 260.664062 C 194.691406 260.664062 184.035156 260.664062 173.3125 260.664062 C 161.429688 260.664062 149.546875 260.664062 137.730469 260.664062 C 122.023438 260.664062 106.246094 260.664062 90.539062 260.664062 C 88.21875 260.664062 85.964844 260.664062 83.640625 260.664062 C 82.207031 260.664062 82.207031 262.917969 83.640625 262.917969 C 100.03125 262.917969 116.425781 262.917969 132.746094 262.917969 C 144.972656 262.917969 157.128906 262.917969 169.351562 262.917969 C 180.074219 262.917969 190.730469 262.917969 201.453125 262.917969 C 213.335938 262.917969 225.21875 262.917969 237.035156 262.917969 C 252.742188 262.917969 268.515625 262.917969 284.226562 262.917969 C 286.546875 262.917969 288.800781 262.917969 291.125 262.917969 C 292.558594 262.917969 292.558594 260.664062 291.125 260.664062 Z M 187.382812 299.941406 C 157.195312 299.941406 128.511719 286.621094 108.910156 263.945312 L 105.976562 263.945312 C 125.984375 288.054688 155.898438 302.195312 187.382812 302.195312 C 218.867188 302.195312 248.78125 288.054688 268.789062 263.945312 L 265.855469 263.945312 C 246.253906 286.621094 217.570312 299.941406 187.382812 299.941406 Z M 162.453125 287.578125 C 164.84375 288.328125 167.234375 289.011719 169.695312 289.488281 C 169.761719 289.488281 169.832031 289.421875 169.898438 289.421875 C 172.835938 288.875 175.566406 287.851562 178.164062 286.414062 C 178.777344 286.074219 179.460938 285.730469 180.210938 286.210938 C 180.828125 286.621094 181.304688 287.234375 181.851562 287.714844 C 182.945312 288.738281 184.035156 289.761719 185.128906 290.785156 C 186.085938 291.128906 185.949219 292.902344 184.652344 292.972656 C 180.144531 293.246094 175.703125 292.902344 171.265625 292.085938 C 163.480469 290.648438 155.96875 287.851562 148.933594 284.296875 C 142.035156 280.882812 135.546875 276.648438 129.535156 271.867188 C 128.511719 271.046875 129.808594 269.613281 130.902344 270.089844 L 186.015625 270.089844 C 186.5625 270.089844 186.90625 270.433594 187.042969 270.84375 C 187.246094 271.253906 187.246094 271.730469 186.90625 272.140625 C 180.074219 279.175781 172.015625 285.390625 162.453125 287.578125 Z M 175.019531 290.378906 C 177.273438 290.648438 179.527344 290.785156 181.851562 290.785156 C 181.644531 290.582031 181.441406 290.445312 181.234375 290.242188 C 180.828125 289.832031 180.347656 289.421875 179.9375 289.011719 C 179.734375 288.804688 179.527344 288.53125 179.253906 288.328125 C 179.050781 288.464844 178.777344 288.667969 178.640625 288.738281 C 178.300781 288.941406 177.890625 289.148438 177.546875 289.351562 C 176.796875 289.695312 176.046875 290.035156 175.292969 290.308594 C 175.15625 290.308594 175.089844 290.378906 175.019531 290.378906 Z M 137.253906 272.414062 L 133.839844 272.414062 C 134.933594 273.234375 136.09375 274.050781 137.253906 274.871094 Z M 143.539062 272.414062 L 139.4375 272.414062 L 139.4375 276.375 C 140.121094 276.851562 140.804688 277.261719 141.554688 277.742188 C 142.238281 278.152344 142.855469 278.558594 143.539062 278.96875 Z M 151.050781 272.414062 L 145.789062 272.414062 L 145.789062 279.789062 C 145.789062 279.925781 145.789062 279.996094 145.722656 280.132812 C 147.429688 281.085938 149.207031 282.042969 151.050781 282.933594 Z M 158.085938 272.414062 L 153.304688 272.414062 L 153.304688 284.023438 C 154.875 284.777344 156.445312 285.390625 158.085938 286.074219 Z M 165.527344 284.367188 C 165.460938 284.230469 165.460938 284.09375 165.460938 283.957031 L 165.460938 272.414062 L 160.40625 272.414062 L 160.40625 285.730469 C 162.113281 285.390625 163.820312 284.980469 165.527344 284.367188 Z M 172.496094 281.019531 C 172.496094 280.882812 172.425781 280.816406 172.425781 280.679688 L 172.425781 272.34375 L 167.644531 272.34375 L 167.644531 283.476562 C 169.351562 282.796875 170.921875 281.976562 172.496094 281.019531 Z M 179.9375 275.625 C 179.9375 275.554688 179.9375 275.554688 179.9375 275.625 L 179.9375 272.414062 L 174.679688 272.414062 L 174.679688 279.652344 C 176.523438 278.425781 178.300781 277.058594 179.9375 275.625 Z M 183.421875 272.414062 L 182.191406 272.414062 L 182.191406 273.574219 C 182.601562 273.164062 183.011719 272.824219 183.421875 272.414062 Z M 205.070312 289.488281 C 207.53125 289.011719 209.921875 288.328125 212.308594 287.578125 C 202.75 285.390625 194.691406 279.175781 187.929688 272.207031 C 187.519531 271.796875 187.519531 271.320312 187.792969 270.910156 C 187.929688 270.5 188.269531 270.160156 188.816406 270.160156 L 243.929688 270.160156 C 245.023438 269.679688 246.320312 271.046875 245.296875 271.933594 C 239.285156 276.785156 232.800781 280.949219 225.902344 284.367188 C 218.867188 287.851562 211.355469 290.71875 203.570312 292.152344 C 199.128906 292.972656 194.691406 293.3125 190.183594 293.039062 C 188.886719 292.972656 188.75 291.195312 189.703125 290.855469 C 190.796875 289.832031 191.890625 288.804688 192.984375 287.78125 C 193.527344 287.304688 194.007812 286.6875 194.621094 286.277344 C 195.304688 285.867188 195.988281 286.140625 196.671875 286.484375 C 199.199219 287.988281 201.996094 289.011719 204.933594 289.488281 C 204.933594 289.488281 205.003906 289.488281 205.070312 289.488281 Z M 199.8125 290.378906 C 199.742188 290.378906 199.675781 290.308594 199.539062 290.308594 C 198.789062 290.035156 198.035156 289.695312 197.285156 289.351562 C 196.945312 289.148438 196.535156 288.941406 196.191406 288.738281 C 196.054688 288.667969 195.78125 288.464844 195.578125 288.328125 C 195.375 288.53125 195.101562 288.804688 194.894531 289.011719 C 194.484375 289.421875 194.007812 289.832031 193.597656 290.242188 C 193.394531 290.445312 193.1875 290.582031 192.984375 290.785156 C 195.238281 290.785156 197.558594 290.648438 199.8125 290.378906 Z M 237.578125 274.804688 C 238.742188 273.984375 239.832031 273.234375 240.996094 272.34375 L 237.578125 272.34375 Z M 231.226562 278.902344 C 231.910156 278.492188 232.59375 278.082031 233.207031 277.671875 C 233.890625 277.261719 234.574219 276.785156 235.324219 276.304688 L 235.324219 272.34375 L 231.226562 272.34375 Z M 223.714844 282.933594 C 225.492188 282.042969 227.265625 281.085938 229.042969 280.132812 C 229.042969 280.0625 228.972656 279.925781 228.972656 279.789062 L 228.972656 272.414062 L 223.714844 272.414062 Z M 216.679688 286.003906 C 218.320312 285.390625 219.890625 284.707031 221.460938 283.957031 L 221.460938 272.34375 L 216.679688 272.34375 Z M 192.574219 272.414062 L 191.34375 272.414062 C 191.753906 272.824219 192.164062 273.234375 192.574219 273.574219 Z M 200.085938 272.414062 L 194.828125 272.414062 L 194.828125 275.554688 C 194.828125 275.554688 194.828125 275.554688 194.828125 275.625 C 196.535156 277.058594 198.242188 278.425781 200.085938 279.722656 Z M 207.121094 272.414062 L 202.339844 272.414062 L 202.339844 280.746094 C 202.339844 280.882812 202.339844 281.019531 202.269531 281.085938 C 203.84375 282.042969 205.414062 282.863281 207.121094 283.546875 Z M 214.425781 285.730469 L 214.425781 272.414062 L 209.375 272.414062 L 209.375 283.957031 C 209.375 284.09375 209.375 284.230469 209.304688 284.367188 C 210.945312 284.980469 212.71875 285.390625 214.425781 285.730469 Z M 151.050781 130.820312 C 151.050781 110.738281 167.371094 94.414062 187.449219 94.414062 C 207.53125 94.414062 223.851562 110.738281 223.851562 130.820312 C 223.851562 150.902344 207.53125 167.226562 187.449219 167.226562 C 167.371094 167.226562 151.050781 150.902344 151.050781 130.820312 Z M 151.800781 130.820312 C 151.800781 150.492188 167.78125 166.472656 187.449219 166.472656 C 207.121094 166.472656 223.101562 150.492188 223.101562 130.820312 C 223.101562 111.148438 207.121094 95.164062 187.449219 95.164062 C 167.78125 95.164062 151.800781 111.148438 151.800781 130.820312 Z M 328.414062 177.402344 L 328.414062 179.65625 L 46.421875 179.65625 L 46.421875 177.402344 L 57.621094 177.402344 C 60.488281 172.894531 63.5625 168.523438 66.839844 164.289062 C 66.839844 164.21875 66.910156 164.21875 66.910156 164.152344 C 67.046875 163.945312 67.25 163.808594 67.457031 163.742188 C 67.59375 163.675781 67.796875 163.675781 68.003906 163.675781 L 99.898438 163.675781 C 95.933594 158.960938 93 153.429688 91.429688 147.484375 C 91.222656 146.804688 91.632812 146.324219 92.109375 146.1875 C 92.246094 146.121094 92.453125 146.050781 92.589844 146.050781 L 94.226562 146.050781 C 93.953125 145.847656 93.679688 145.640625 93.476562 145.4375 C 92.316406 144.207031 91.90625 142.5 91.972656 140.859375 C 92.179688 137.921875 93.816406 135.191406 96.277344 133.621094 C 98.394531 132.253906 100.921875 131.914062 103.3125 132.390625 C 103.105469 131.09375 103.039062 129.726562 103.175781 128.359375 C 103.652344 124.671875 105.632812 121.324219 108.84375 119.414062 C 111.917969 117.636719 115.808594 117.160156 119.085938 118.660156 C 122.707031 120.300781 124.210938 124.945312 123.117188 128.632812 C 122.640625 130.339844 121.476562 131.914062 119.90625 132.730469 C 118.335938 133.550781 116.152344 133.621094 114.785156 132.324219 C 113.625 131.160156 113.417969 129.113281 114.648438 127.949219 C 115.742188 126.996094 117.585938 126.996094 118.542969 128.15625 C 119.222656 128.976562 119.15625 130.136719 118.542969 130.886719 C 119.085938 130.613281 119.566406 130.273438 119.90625 129.863281 C 121.886719 127.679688 121.476562 123.441406 119.292969 121.460938 C 117.449219 119.824219 114.511719 119.753906 112.257812 120.371094 C 109.867188 121.050781 107.820312 122.554688 106.65625 124.742188 C 103.996094 129.386719 105.566406 135.121094 108.910156 139.015625 C 110.6875 141.066406 112.871094 142.910156 115.398438 143.867188 C 117.996094 144.890625 120.863281 144.890625 123.59375 144.34375 C 129.195312 143.113281 133.703125 139.289062 138.003906 135.738281 C 137.324219 128.496094 137.800781 120.847656 140.464844 114.085938 C 139.507812 113.335938 138.894531 112.171875 138.894531 110.875 C 138.894531 108.621094 140.738281 106.777344 142.992188 106.777344 C 145.246094 106.777344 147.089844 108.621094 147.089844 110.875 C 147.089844 113.128906 145.246094 114.972656 142.992188 114.972656 C 142.855469 114.972656 142.71875 114.972656 142.511719 114.972656 C 142.101562 115.996094 141.761719 117.023438 141.488281 118.046875 C 138.960938 127.132812 139.710938 137.035156 142.035156 146.050781 L 148.25 146.050781 C 146.40625 141.269531 145.382812 136.148438 145.382812 130.683594 C 145.382812 107.527344 164.230469 88.675781 187.382812 88.675781 C 210.535156 88.675781 229.382812 107.527344 229.382812 130.683594 C 229.382812 136.078125 228.359375 141.269531 226.515625 146.050781 L 232.730469 146.050781 C 235.054688 137.035156 235.804688 127.0625 233.277344 118.046875 C 233.003906 117.023438 232.59375 115.996094 232.253906 114.972656 C 232.117188 114.972656 231.980469 114.972656 231.773438 114.972656 C 229.519531 114.972656 227.675781 113.128906 227.675781 110.875 C 227.675781 108.621094 229.519531 106.777344 231.773438 106.777344 C 234.027344 106.777344 235.871094 108.621094 235.871094 110.875 C 235.871094 112.171875 235.257812 113.335938 234.300781 114.085938 C 236.964844 120.847656 237.441406 128.496094 236.761719 135.738281 C 241.0625 139.359375 245.570312 143.113281 251.171875 144.34375 C 253.832031 144.957031 256.769531 144.957031 259.367188 143.867188 C 261.894531 142.839844 264.078125 140.996094 265.855469 139.015625 C 269.199219 135.191406 270.703125 129.386719 268.109375 124.742188 C 266.878906 122.625 264.828125 121.050781 262.507812 120.371094 C 260.253906 119.753906 257.316406 119.824219 255.472656 121.460938 C 253.289062 123.375 252.878906 127.609375 254.859375 129.863281 C 255.199219 130.207031 255.679688 130.613281 256.222656 130.886719 C 255.679688 130.136719 255.609375 128.976562 256.222656 128.15625 C 257.179688 126.996094 259.023438 126.996094 260.117188 127.949219 C 261.347656 129.113281 261.140625 131.160156 259.980469 132.324219 C 258.613281 133.6875 256.496094 133.621094 254.859375 132.730469 C 253.289062 131.914062 252.125 130.339844 251.648438 128.632812 C 250.625 124.945312 252.125 120.371094 255.679688 118.660156 C 258.957031 117.160156 262.847656 117.636719 265.921875 119.414062 C 269.132812 121.324219 271.113281 124.671875 271.589844 128.359375 C 271.726562 129.726562 271.726562 131.023438 271.453125 132.390625 C 273.84375 131.914062 276.371094 132.253906 278.488281 133.621094 C 280.945312 135.191406 282.585938 137.921875 282.792969 140.859375 C 282.925781 142.5 282.449219 144.207031 281.289062 145.4375 C 281.082031 145.710938 280.808594 145.914062 280.539062 146.050781 L 282.175781 146.050781 C 282.382812 146.050781 282.519531 146.121094 282.65625 146.1875 C 283.132812 146.394531 283.542969 146.871094 283.335938 147.484375 C 281.765625 153.429688 278.898438 158.960938 274.867188 163.675781 L 306.761719 163.675781 C 306.96875 163.675781 307.105469 163.675781 307.308594 163.742188 C 307.582031 163.808594 307.71875 163.945312 307.855469 164.152344 C 307.855469 164.21875 307.921875 164.21875 307.921875 164.289062 C 311.132812 168.523438 314.207031 172.894531 317.144531 177.402344 Z M 280.742188 148.375 L 274.867188 148.375 C 273.230469 154.042969 270.429688 159.234375 266.671875 163.742188 L 271.933594 163.742188 C 276.03125 159.371094 279.035156 154.113281 280.742188 148.375 Z M 226.175781 163.742188 L 229.929688 163.742188 C 234.027344 159.371094 237.035156 154.113281 238.808594 148.375 L 234.4375 148.375 C 232.800781 154.042969 230 159.300781 226.175781 163.742188 Z M 232.9375 163.742188 L 236.691406 163.742188 C 240.789062 159.371094 243.792969 154.113281 245.570312 148.375 L 241.199219 148.375 C 239.492188 154.042969 236.691406 159.300781 232.9375 163.742188 Z M 239.695312 163.742188 L 243.453125 163.742188 C 247.550781 159.371094 250.554688 154.113281 252.332031 148.375 L 247.890625 148.375 C 246.253906 154.042969 243.453125 159.300781 239.695312 163.742188 Z M 246.457031 163.742188 L 250.214844 163.742188 C 254.3125 159.371094 257.316406 154.113281 259.09375 148.375 L 254.722656 148.375 C 253.015625 154.042969 250.214844 159.300781 246.457031 163.742188 Z M 253.152344 163.742188 L 256.90625 163.742188 C 261.003906 159.371094 264.011719 154.113281 265.785156 148.375 L 261.414062 148.375 C 259.777344 154.042969 256.976562 159.300781 253.152344 163.742188 Z M 259.914062 163.742188 L 263.667969 163.742188 C 267.765625 159.371094 270.769531 154.113281 272.546875 148.375 L 268.175781 148.375 C 266.535156 154.042969 263.738281 159.300781 259.914062 163.742188 Z M 260.046875 146.1875 L 274.253906 146.1875 C 273.777344 145.847656 273.367188 145.367188 273.09375 144.753906 C 272.34375 143.386719 272.070312 141.542969 273.296875 140.3125 C 274.527344 139.085938 276.847656 139.496094 277.257812 141.339844 C 277.601562 142.703125 276.234375 143.867188 275.003906 143.730469 C 275.003906 143.796875 275.074219 143.796875 275.074219 143.867188 C 275.550781 144.683594 276.234375 144.820312 277.121094 144.820312 C 278.011719 144.820312 278.828125 144.753906 279.511719 144.140625 C 280.878906 142.839844 280.605469 140.65625 279.992188 139.085938 C 279.375 137.511719 278.148438 136.148438 276.644531 135.394531 C 274.867188 134.441406 272.613281 134.371094 270.769531 135.121094 C 269.132812 139.972656 264.898438 144.277344 260.046875 146.1875 Z M 235.054688 146.1875 L 248.847656 146.1875 C 244.339844 144.617188 240.175781 141.542969 236.488281 138.539062 C 236.417969 138.8125 236.417969 139.085938 236.351562 139.425781 C 236.078125 141.679688 235.597656 143.933594 235.054688 146.1875 Z M 225.558594 148.375 C 222.757812 154.382812 218.59375 159.644531 213.472656 163.742188 L 223.238281 163.742188 C 227.335938 159.371094 230.339844 154.113281 232.117188 148.375 L 225.832031 148.375 C 225.695312 148.375 225.628906 148.375 225.558594 148.375 Z M 187.382812 170.574219 C 209.304688 170.574219 227.128906 152.746094 227.128906 130.820312 C 227.128906 108.894531 209.304688 91.066406 187.382812 91.066406 C 165.460938 91.066406 147.636719 108.894531 147.636719 130.820312 C 147.636719 152.746094 165.460938 170.574219 187.382812 170.574219 Z M 142.785156 148.375 C 144.492188 154.113281 147.566406 159.371094 151.664062 163.742188 L 161.429688 163.742188 C 156.238281 159.644531 152.074219 154.382812 149.34375 148.375 C 149.273438 148.375 149.207031 148.375 149.136719 148.375 Z M 117.925781 163.742188 L 121.683594 163.742188 C 117.925781 159.300781 115.125 154.042969 113.488281 148.375 L 109.117188 148.375 C 110.753906 154.113281 113.828125 159.371094 117.925781 163.742188 Z M 106.65625 148.375 L 102.285156 148.375 C 103.996094 154.113281 107.066406 159.371094 111.164062 163.742188 L 114.921875 163.742188 C 111.097656 159.300781 108.296875 154.042969 106.65625 148.375 Z M 124.621094 163.742188 L 128.375 163.742188 C 124.621094 159.300781 121.820312 154.042969 120.179688 148.375 L 115.808594 148.375 C 117.515625 154.113281 120.523438 159.371094 124.621094 163.742188 Z M 131.378906 163.742188 L 135.136719 163.742188 C 131.378906 159.300781 128.582031 154.042969 126.941406 148.375 L 122.570312 148.375 C 124.277344 154.113281 127.28125 159.371094 131.378906 163.742188 Z M 138.140625 163.742188 L 141.898438 163.742188 C 138.140625 159.300781 135.339844 154.042969 133.703125 148.375 L 129.332031 148.375 C 131.039062 154.113281 134.042969 159.371094 138.140625 163.742188 Z M 144.902344 163.742188 L 148.660156 163.742188 C 144.902344 159.300781 142.101562 154.042969 140.464844 148.375 L 136.09375 148.375 C 137.800781 154.113281 140.804688 159.371094 144.902344 163.742188 Z M 125.917969 146.1875 L 139.710938 146.1875 C 139.167969 143.933594 138.6875 141.679688 138.414062 139.359375 C 138.347656 139.085938 138.347656 138.8125 138.277344 138.46875 C 134.660156 141.476562 130.492188 144.617188 125.917969 146.1875 Z M 101.742188 144.753906 C 101.398438 145.367188 100.988281 145.777344 100.578125 146.1875 L 114.785156 146.1875 C 109.9375 144.277344 105.703125 140.039062 103.996094 134.988281 C 102.148438 134.234375 99.898438 134.371094 98.121094 135.257812 C 96.617188 136.078125 95.390625 137.378906 94.773438 138.949219 C 94.160156 140.519531 93.886719 142.773438 95.253906 144.003906 C 95.933594 144.617188 96.753906 144.683594 97.644531 144.683594 C 98.53125 144.683594 99.214844 144.550781 99.691406 143.730469 C 99.691406 143.730469 99.761719 143.660156 99.761719 143.59375 C 98.53125 143.730469 97.234375 142.636719 97.507812 141.203125 C 97.914062 139.359375 100.238281 138.949219 101.46875 140.175781 C 102.765625 141.542969 102.492188 143.320312 101.742188 144.753906 Z M 102.902344 163.742188 L 108.160156 163.742188 C 104.402344 159.300781 101.605469 154.042969 99.964844 148.375 L 94.089844 148.375 C 95.796875 154.113281 98.804688 159.371094 102.902344 163.742188 Z M 314.480469 177.402344 C 313.386719 175.695312 312.226562 174.054688 311.066406 172.347656 C 310.929688 172.417969 310.722656 172.484375 310.519531 172.484375 L 219.003906 172.484375 C 218.796875 174.535156 217.023438 176.105469 214.90625 176.105469 C 212.652344 176.105469 210.808594 174.261719 210.808594 172.007812 C 210.808594 169.753906 212.652344 167.910156 214.90625 167.910156 C 216.542969 167.910156 217.980469 168.863281 218.59375 170.230469 L 309.5625 170.230469 C 308.539062 168.796875 307.515625 167.363281 306.421875 165.929688 L 210.464844 165.929688 C 210.398438 165.929688 210.398438 165.929688 210.328125 165.929688 C 203.707031 170.230469 195.851562 172.757812 187.382812 172.757812 C 178.914062 172.757812 171.058594 170.230469 164.433594 165.929688 C 164.367188 165.929688 164.367188 165.929688 164.300781 165.929688 L 68.34375 165.929688 C 67.320312 167.363281 66.226562 168.796875 65.203125 170.230469 L 156.171875 170.230469 C 156.855469 168.863281 158.21875 167.910156 159.859375 167.910156 C 162.113281 167.910156 163.957031 169.753906 163.957031 172.007812 C 163.957031 174.261719 162.113281 176.105469 159.859375 176.105469 C 157.742188 176.105469 155.96875 174.535156 155.761719 172.484375 L 64.246094 172.484375 C 64.042969 172.484375 63.835938 172.417969 63.699219 172.347656 C 62.539062 173.988281 61.378906 175.695312 60.285156 177.402344 Z M 187.382812 74.949219 C 238.058594 74.949219 280.605469 110.808594 289.277344 160.464844 L 291.53125 160.464844 C 287.433594 136.421875 274.9375 114.425781 256.359375 98.375 C 237.304688 81.777344 212.789062 72.695312 187.382812 72.695312 C 162.183594 72.695312 137.800781 81.710938 118.675781 98.101562 C 99.898438 114.152344 87.332031 136.285156 83.164062 160.464844 L 85.417969 160.464844 C 94.160156 110.875 136.84375 74.949219 187.382812 74.949219 Z M 187.382812 74.949219 " fill-opacity="1" fill-rule="nonzero"/></g><g clip-path="url(#ef9250090a)"><path fill="#f4c87a" d="M 187.523438 89.199219 C 164.570312 89.199219 145.898438 107.871094 145.898438 130.824219 C 145.898438 153.777344 164.570312 172.453125 187.523438 172.453125 C 210.480469 172.453125 229.148438 153.777344 229.148438 130.824219 C 229.148438 107.871094 210.480469 89.199219 187.523438 89.199219 Z M 187.523438 171.246094 C 165.238281 171.246094 147.105469 153.113281 147.105469 130.824219 C 147.105469 108.535156 165.238281 90.402344 187.523438 90.402344 C 209.8125 90.402344 227.945312 108.535156 227.945312 130.824219 C 227.945312 153.113281 209.8125 171.246094 187.523438 171.246094 Z M 187.523438 171.246094 " fill-opacity="1" fill-rule="nonzero"/></g><path fill="#f4c87a" d="M 214.027344 104.324219 C 213.519531 103.816406 213 103.328125 212.464844 102.851562 C 211.933594 102.375 211.382812 101.914062 210.824219 101.46875 C 210.261719 101.023438 209.691406 100.597656 209.105469 100.183594 C 208.519531 99.773438 207.925781 99.378906 207.316406 99 C 206.707031 98.621094 206.089844 98.261719 205.460938 97.917969 C 204.835938 97.574219 204.195312 97.25 203.550781 96.945312 C 202.902344 96.640625 202.246094 96.351562 201.585938 96.085938 C 200.921875 95.816406 200.25 95.566406 199.574219 95.335938 C 198.894531 95.105469 198.210938 94.894531 197.523438 94.707031 C 196.832031 94.515625 196.136719 94.34375 195.4375 94.191406 C 194.738281 94.042969 194.035156 93.910156 193.328125 93.800781 C 192.621094 93.6875 191.910156 93.597656 191.199219 93.527344 C 190.488281 93.457031 189.773438 93.410156 189.058594 93.378906 C 188.34375 93.351562 187.628906 93.339844 186.914062 93.351562 C 186.199219 93.363281 185.484375 93.398438 184.769531 93.449219 C 184.054688 93.503906 183.34375 93.574219 182.632812 93.667969 C 181.925781 93.761719 181.21875 93.875 180.515625 94.011719 C 179.8125 94.144531 179.113281 94.296875 178.417969 94.472656 C 177.726562 94.644531 177.039062 94.839844 176.355469 95.050781 C 175.671875 95.265625 174.996094 95.5 174.324219 95.75 C 173.65625 96.003906 172.992188 96.273438 172.339844 96.5625 C 171.683594 96.855469 171.039062 97.164062 170.402344 97.488281 C 169.765625 97.816406 169.140625 98.160156 168.523438 98.523438 C 167.90625 98.886719 167.300781 99.265625 166.707031 99.664062 C 166.109375 100.0625 165.527344 100.476562 164.957031 100.90625 C 164.382812 101.339844 163.824219 101.785156 163.28125 102.25 C 162.734375 102.710938 162.203125 103.191406 161.683594 103.683594 C 161.167969 104.175781 160.664062 104.683594 160.171875 105.207031 C 159.683594 105.730469 159.210938 106.265625 158.75 106.816406 C 158.292969 107.363281 157.851562 107.925781 157.425781 108.5 C 157 109.074219 156.589844 109.664062 156.195312 110.261719 C 155.804688 110.859375 155.429688 111.46875 155.070312 112.085938 C 154.710938 112.707031 154.371094 113.335938 154.050781 113.976562 C 153.730469 114.613281 153.425781 115.261719 153.140625 115.917969 C 152.855469 116.574219 152.589844 117.242188 152.34375 117.914062 C 152.097656 118.582031 151.871094 119.261719 151.664062 119.945312 C 151.457031 120.632812 151.269531 121.320312 151.101562 122.015625 C 150.929688 122.714844 150.785156 123.414062 150.65625 124.117188 C 150.527344 124.820312 150.417969 125.527344 150.332031 126.238281 C 150.246094 126.949219 150.175781 127.660156 150.128906 128.375 C 150.082031 129.089844 150.058594 129.804688 150.050781 130.519531 C 150.046875 131.234375 150.058594 131.949219 150.09375 132.664062 C 150.128906 133.378906 150.1875 134.09375 150.261719 134.804688 C 150.335938 135.515625 150.433594 136.226562 150.550781 136.929688 C 150.667969 137.636719 150.804688 138.339844 150.960938 139.039062 C 151.117188 139.734375 151.292969 140.429688 151.492188 141.117188 C 151.6875 141.804688 151.902344 142.488281 152.140625 143.164062 C 152.375 143.839844 152.628906 144.507812 152.902344 145.167969 C 153.175781 145.828125 153.46875 146.480469 153.78125 147.125 C 154.09375 147.769531 154.421875 148.40625 154.769531 149.03125 C 155.117188 149.65625 155.480469 150.269531 155.863281 150.875 C 156.246094 151.480469 156.648438 152.074219 157.0625 152.65625 C 157.480469 153.238281 157.914062 153.804688 158.363281 154.363281 C 158.8125 154.921875 159.277344 155.464844 159.757812 155.992188 C 160.238281 156.523438 160.734375 157.039062 161.246094 157.542969 C 161.753906 158.042969 162.277344 158.53125 162.816406 159.003906 C 163.355469 159.472656 163.90625 159.929688 164.46875 160.371094 C 165.035156 160.8125 165.609375 161.234375 166.199219 161.640625 C 166.789062 162.050781 167.386719 162.4375 168 162.8125 C 168.609375 163.183594 169.230469 163.539062 169.859375 163.878906 C 170.492188 164.214844 171.132812 164.535156 171.78125 164.835938 C 172.429688 165.136719 173.089844 165.417969 173.753906 165.679688 C 174.417969 165.941406 175.09375 166.1875 175.773438 166.410156 C 176.453125 166.636719 177.136719 166.839844 177.828125 167.027344 C 178.519531 167.210938 179.214844 167.375 179.914062 167.519531 C 180.617188 167.667969 181.320312 167.792969 182.027344 167.898438 C 182.738281 168 183.445312 168.085938 184.160156 168.152344 C 184.871094 168.214844 185.585938 168.257812 186.300781 168.28125 C 187.015625 168.304688 187.730469 168.308594 188.445312 168.289062 C 189.164062 168.273438 189.875 168.234375 190.589844 168.175781 C 191.304688 168.117188 192.015625 168.039062 192.722656 167.941406 C 193.433594 167.839844 194.136719 167.722656 194.839844 167.582031 C 195.539062 167.441406 196.238281 167.28125 196.929688 167.101562 C 197.625 166.921875 198.308594 166.722656 198.992188 166.503906 C 199.671875 166.285156 200.347656 166.046875 201.015625 165.789062 C 201.683594 165.535156 202.34375 165.257812 202.996094 164.960938 C 203.644531 164.667969 204.289062 164.351562 204.921875 164.019531 C 205.558594 163.6875 206.179688 163.339844 206.792969 162.96875 C 207.40625 162.601562 208.011719 162.21875 208.601562 161.816406 C 209.195312 161.414062 209.773438 160.992188 210.339844 160.558594 C 210.910156 160.121094 211.464844 159.671875 212.007812 159.203125 C 212.546875 158.734375 213.074219 158.253906 213.589844 157.753906 C 214.105469 157.257812 214.605469 156.746094 215.089844 156.21875 C 215.574219 155.691406 216.042969 155.152344 216.496094 154.601562 C 216.953125 154.046875 217.390625 153.480469 217.8125 152.902344 C 218.230469 152.324219 218.636719 151.734375 219.023438 151.132812 C 219.414062 150.53125 219.78125 149.921875 220.136719 149.296875 C 220.488281 148.675781 220.824219 148.042969 221.140625 147.402344 C 221.457031 146.757812 221.753906 146.109375 222.03125 145.449219 C 222.3125 144.789062 222.570312 144.125 222.8125 143.449219 C 223.054688 142.777344 223.277344 142.097656 223.476562 141.410156 C 223.679688 140.722656 223.863281 140.03125 224.023438 139.335938 C 224.1875 138.636719 224.328125 137.9375 224.453125 137.230469 C 224.574219 136.527344 224.675781 135.820312 224.757812 135.109375 C 224.839844 134.398438 224.902344 133.683594 224.941406 132.96875 C 224.984375 132.253906 225.003906 131.539062 225.003906 130.824219 C 225.007812 128.363281 224.769531 125.925781 224.289062 123.511719 C 223.8125 121.097656 223.101562 118.753906 222.160156 116.480469 C 221.21875 114.207031 220.0625 112.046875 218.695312 110 C 217.324219 107.953125 215.769531 106.0625 214.027344 104.324219 Z M 212.027344 155.328125 C 210.171875 157.183594 208.128906 158.8125 205.902344 160.207031 L 205.339844 137.847656 C 205.308594 137.054688 205.492188 136.308594 205.886719 135.617188 C 206.28125 134.925781 206.832031 134.394531 207.53125 134.015625 C 208.691406 133.371094 209.46875 132.363281 209.363281 130.992188 L 208.054688 112.679688 C 208.03125 112.355469 207.375 112.371094 207.371094 112.699219 L 207.332031 129.226562 C 207.332031 129.933594 206.054688 129.9375 206.039062 129.238281 L 205.472656 112.695312 C 205.460938 112.359375 204.789062 112.359375 204.777344 112.695312 L 204.566406 129.238281 C 204.558594 129.585938 204.238281 129.761719 203.921875 129.761719 C 203.757812 129.777344 203.613281 129.738281 203.488281 129.632812 C 203.363281 129.53125 203.289062 129.398438 203.277344 129.238281 L 203.0625 112.695312 C 203.050781 112.359375 202.378906 112.359375 202.371094 112.695312 L 201.800781 129.238281 C 201.789062 129.9375 200.511719 129.933594 200.507812 129.226562 L 200.46875 112.699219 C 200.46875 112.371094 199.8125 112.355469 199.785156 112.679688 L 198.476562 130.992188 C 198.371094 132.363281 199.148438 133.371094 200.308594 134.015625 C 201.007812 134.394531 201.558594 134.925781 201.953125 135.617188 C 202.347656 136.308594 202.53125 137.054688 202.5 137.847656 L 201.882812 162.371094 C 198.046875 164.117188 194.027344 165.128906 189.824219 165.398438 L 189.851562 141.679688 C 189.847656 141.519531 189.789062 141.386719 189.671875 141.273438 C 189.558594 141.164062 189.421875 141.109375 189.261719 141.109375 L 188.230469 141.109375 C 187.972656 141.105469 187.757812 141.011719 187.578125 140.828125 C 187.398438 140.648438 187.308594 140.429688 187.308594 140.171875 C 187.308594 139.917969 187.398438 139.699219 187.578125 139.515625 C 187.757812 139.332031 187.972656 139.238281 188.230469 139.234375 L 188.664062 139.234375 C 188.875 139.238281 189.066406 139.175781 189.234375 139.050781 C 189.402344 138.921875 189.515625 138.757812 189.574219 138.554688 C 192 130.308594 191.480469 108.789062 187.859375 104.921875 C 186.589844 103.5625 185.113281 104.597656 185.113281 106.363281 L 185.113281 165.390625 C 180.949219 165.109375 176.96875 164.101562 173.167969 162.371094 L 172.542969 137.527344 C 172.515625 136.78125 172.671875 136.082031 173.019531 135.421875 C 173.371094 134.761719 173.859375 134.238281 174.492188 133.839844 C 174.921875 133.558594 175.324219 133.238281 175.691406 132.878906 C 177.453125 131.164062 178.585938 128.484375 178.585938 125.464844 C 178.585938 120.277344 175.25 112.164062 171.132812 112.164062 C 167.015625 112.164062 163.675781 120.277344 163.675781 125.464844 C 163.675781 128.457031 164.789062 131.117188 166.523438 132.832031 C 166.90625 133.210938 167.320312 133.546875 167.773438 133.839844 C 168.402344 134.234375 168.894531 134.761719 169.242188 135.421875 C 169.589844 136.082031 169.75 136.78125 169.71875 137.527344 L 169.148438 160.207031 C 168.140625 159.574219 167.164062 158.894531 166.226562 158.164062 C 165.289062 157.433594 164.390625 156.65625 163.53125 155.832031 C 162.671875 155.007812 161.859375 154.144531 161.089844 153.234375 C 160.320312 152.328125 159.601562 151.382812 158.929688 150.402344 C 158.257812 149.421875 157.636719 148.40625 157.070312 147.363281 C 156.5 146.316406 155.988281 145.246094 155.53125 144.144531 C 155.074219 143.046875 154.675781 141.929688 154.332031 140.789062 C 153.988281 139.652344 153.707031 138.496094 153.484375 137.328125 C 153.261719 136.160156 153.097656 134.984375 152.996094 133.796875 C 152.894531 132.613281 152.851562 131.425781 152.875 130.234375 C 152.894531 129.046875 152.976562 127.863281 153.117188 126.679688 C 153.257812 125.5 153.460938 124.328125 153.726562 123.167969 C 153.988281 122.007812 154.308594 120.863281 154.691406 119.738281 C 155.070312 118.609375 155.507812 117.507812 156.003906 116.425781 C 156.496094 115.34375 157.046875 114.289062 157.648438 113.261719 C 158.25 112.238281 158.90625 111.246094 159.609375 110.289062 C 160.316406 109.328125 161.066406 108.410156 161.867188 107.527344 C 162.667969 106.648438 163.511719 105.8125 164.394531 105.015625 C 165.28125 104.222656 166.207031 103.476562 167.167969 102.777344 C 168.132812 102.078125 169.128906 101.433594 170.15625 100.835938 C 171.1875 100.238281 172.242188 99.699219 173.328125 99.210938 C 174.414062 98.722656 175.523438 98.292969 176.652344 97.921875 C 177.78125 97.546875 178.925781 97.234375 180.089844 96.976562 C 181.25 96.722656 182.421875 96.527344 183.605469 96.394531 C 184.785156 96.257812 185.972656 96.1875 187.160156 96.171875 C 188.351562 96.160156 189.539062 96.210938 190.722656 96.320312 C 191.90625 96.429688 193.082031 96.601562 194.25 96.832031 C 195.417969 97.0625 196.570312 97.351562 197.707031 97.703125 C 198.84375 98.050781 199.960938 98.457031 201.054688 98.921875 C 202.148438 99.386719 203.21875 99.90625 204.257812 100.480469 C 205.300781 101.054688 206.308594 101.683594 207.289062 102.359375 C 208.265625 103.039062 209.203125 103.765625 210.105469 104.542969 C 211.007812 105.316406 211.867188 106.136719 212.6875 107 C 213.503906 107.863281 214.277344 108.765625 215 109.710938 C 215.726562 110.652344 216.398438 111.632812 217.023438 112.644531 C 217.648438 113.65625 218.21875 114.699219 218.734375 115.769531 C 219.253906 116.84375 219.710938 117.9375 220.117188 119.058594 C 220.519531 120.175781 220.867188 121.3125 221.152344 122.464844 C 221.441406 123.621094 221.667969 124.789062 221.832031 125.964844 C 222 127.144531 222.105469 128.328125 222.152344 129.515625 C 222.195312 130.703125 222.179688 131.890625 222.101562 133.078125 C 222.027344 134.265625 221.886719 135.445312 221.6875 136.617188 C 221.488281 137.792969 221.230469 138.949219 220.914062 140.097656 C 220.59375 141.242188 220.21875 142.371094 219.785156 143.476562 C 219.347656 144.585938 218.859375 145.667969 218.3125 146.722656 C 217.769531 147.78125 217.167969 148.808594 216.519531 149.804688 C 215.867188 150.796875 215.164062 151.757812 214.414062 152.679688 C 213.664062 153.605469 212.867188 154.484375 212.027344 155.328125 Z M 171.132812 119.015625 C 170.101562 119.015625 169.113281 119.9375 168.519531 120.628906 C 167.414062 121.914062 166.585938 123.597656 166.027344 125.152344 C 165.847656 125.648438 165.683594 126.167969 165.542969 126.703125 C 165.472656 126.226562 165.4375 125.75 165.4375 125.269531 C 165.480469 123.492188 165.792969 121.765625 166.378906 120.085938 C 166.898438 118.53125 167.667969 116.847656 168.699219 115.5625 C 169.25 114.871094 170.171875 113.949219 171.132812 113.949219 C 172.089844 113.949219 173.011719 114.871094 173.5625 115.5625 C 174.59375 116.847656 175.363281 118.53125 175.882812 120.085938 C 176.46875 121.765625 176.78125 123.492188 176.824219 125.269531 C 176.824219 125.75 176.789062 126.226562 176.71875 126.703125 C 176.578125 126.167969 176.414062 125.648438 176.234375 125.152344 C 175.675781 123.597656 174.847656 121.914062 173.742188 120.628906 C 173.148438 119.9375 172.160156 119.015625 171.132812 119.015625 Z M 171.132812 119.015625 " fill-opacity="1" fill-rule="evenodd"/><g fill="#f4c87a" fill-opacity="1"><g transform="translate(94.245915, 219.840863)"><g/></g></g><g fill="#f4c87a" fill-opacity="1"><g transform="translate(107.967295, 219.840863)"><g><path d="M 15.046875 0.5 C 12.492188 0.5 10.222656 -0.09375 8.234375 -1.28125 C 6.253906 -2.476562 4.722656 -4.097656 3.640625 -6.140625 C 2.554688 -8.179688 2.015625 -10.410156 2.015625 -12.828125 C 2.015625 -15.640625 2.722656 -18.050781 4.140625 -20.0625 C 5.566406 -22.082031 7.394531 -23.597656 9.625 -24.609375 C 11.863281 -25.628906 14.148438 -26.140625 16.484375 -26.140625 C 19.078125 -26.140625 21.359375 -25.53125 23.328125 -24.3125 C 25.304688 -23.09375 26.820312 -21.484375 27.875 -19.484375 C 28.9375 -17.484375 29.46875 -15.359375 29.46875 -13.109375 C 29.46875 -10.617188 28.804688 -8.332031 27.484375 -6.25 C 26.171875 -4.164062 24.410156 -2.519531 22.203125 -1.3125 C 20.003906 -0.101562 17.617188 0.5 15.046875 0.5 Z M 16.390625 -0.53125 C 17.929688 -0.53125 19.3125 -0.972656 20.53125 -1.859375 C 21.75 -2.753906 22.695312 -4.054688 23.375 -5.765625 C 24.0625 -7.484375 24.40625 -9.535156 24.40625 -11.921875 C 24.40625 -14.441406 24.019531 -16.691406 23.25 -18.671875 C 22.488281 -20.660156 21.378906 -22.21875 19.921875 -23.34375 C 18.472656 -24.46875 16.773438 -25.03125 14.828125 -25.03125 C 12.335938 -25.03125 10.421875 -24.085938 9.078125 -22.203125 C 7.734375 -20.328125 7.0625 -17.707031 7.0625 -14.34375 C 7.0625 -11.6875 7.46875 -9.304688 8.28125 -7.203125 C 9.09375 -5.109375 10.203125 -3.472656 11.609375 -2.296875 C 13.015625 -1.117188 14.609375 -0.53125 16.390625 -0.53125 Z M 16.390625 -0.53125 "/></g></g></g><g fill="#f4c87a" fill-opacity="1"><g transform="translate(143.549718, 219.840863)"><g><path d="M 8.75 -3.5 C 8.75 -2.78125 8.800781 -2.265625 8.90625 -1.953125 C 9.019531 -1.640625 9.234375 -1.425781 9.546875 -1.3125 C 9.867188 -1.207031 10.382812 -1.15625 11.09375 -1.15625 L 12.5 -1.15625 C 14.632812 -1.15625 16.476562 -1.722656 18.03125 -2.859375 C 19.59375 -3.992188 20.632812 -5.535156 21.15625 -7.484375 C 21.15625 -7.535156 21.210938 -7.5625 21.328125 -7.5625 C 21.378906 -7.5625 21.4375 -7.539062 21.5 -7.5 C 21.570312 -7.457031 21.609375 -7.421875 21.609375 -7.390625 C 21.367188 -4.679688 21.25 -2.421875 21.25 -0.609375 C 21.25 -0.390625 21.195312 -0.234375 21.09375 -0.140625 C 21 -0.046875 20.84375 0 20.625 0 L 1.234375 0 C 1.179688 0 1.15625 -0.0820312 1.15625 -0.25 C 1.15625 -0.414062 1.179688 -0.5 1.234375 -0.5 C 2.109375 -0.5 2.742188 -0.566406 3.140625 -0.703125 C 3.535156 -0.835938 3.804688 -1.101562 3.953125 -1.5 C 4.109375 -1.894531 4.1875 -2.503906 4.1875 -3.328125 L 4.1875 -22.359375 C 4.1875 -23.179688 4.109375 -23.78125 3.953125 -24.15625 C 3.804688 -24.539062 3.523438 -24.804688 3.109375 -24.953125 C 2.703125 -25.109375 2.078125 -25.1875 1.234375 -25.1875 C 1.179688 -25.1875 1.15625 -25.269531 1.15625 -25.4375 C 1.15625 -25.601562 1.179688 -25.6875 1.234375 -25.6875 L 3.328125 -25.640625 C 4.585938 -25.585938 5.628906 -25.5625 6.453125 -25.5625 C 7.273438 -25.5625 8.316406 -25.585938 9.578125 -25.640625 L 11.671875 -25.6875 C 11.753906 -25.6875 11.796875 -25.601562 11.796875 -25.4375 C 11.796875 -25.269531 11.753906 -25.1875 11.671875 -25.1875 C 10.816406 -25.1875 10.179688 -25.109375 9.765625 -24.953125 C 9.359375 -24.804688 9.085938 -24.535156 8.953125 -24.140625 C 8.816406 -23.742188 8.75 -23.132812 8.75 -22.3125 Z M 8.75 -3.5 "/></g></g></g><g fill="#f4c87a" fill-opacity="1"><g transform="translate(170.051993, 219.840863)"><g><path d="M 9.328125 -3.328125 C 9.328125 -2.484375 9.394531 -1.867188 9.53125 -1.484375 C 9.664062 -1.097656 9.929688 -0.835938 10.328125 -0.703125 C 10.734375 -0.566406 11.375 -0.5 12.25 -0.5 C 12.332031 -0.5 12.375 -0.414062 12.375 -0.25 C 12.375 -0.0820312 12.332031 0 12.25 0 C 11.34375 0 10.628906 -0.015625 10.109375 -0.046875 L 6.984375 -0.078125 L 3.9375 -0.046875 C 3.394531 -0.015625 2.65625 0 1.71875 0 C 1.664062 0 1.640625 -0.0820312 1.640625 -0.25 C 1.640625 -0.414062 1.664062 -0.5 1.71875 -0.5 C 2.601562 -0.5 3.25 -0.566406 3.65625 -0.703125 C 4.070312 -0.835938 4.351562 -1.101562 4.5 -1.5 C 4.644531 -1.894531 4.71875 -2.503906 4.71875 -3.328125 L 4.71875 -22.359375 C 4.71875 -23.179688 4.644531 -23.78125 4.5 -24.15625 C 4.351562 -24.539062 4.070312 -24.804688 3.65625 -24.953125 C 3.25 -25.109375 2.601562 -25.1875 1.71875 -25.1875 C 1.664062 -25.1875 1.640625 -25.269531 1.640625 -25.4375 C 1.640625 -25.601562 1.664062 -25.6875 1.71875 -25.6875 L 3.9375 -25.640625 C 5.195312 -25.585938 6.210938 -25.5625 6.984375 -25.5625 C 7.835938 -25.5625 8.894531 -25.585938 10.15625 -25.640625 L 12.25 -25.6875 C 12.332031 -25.6875 12.375 -25.601562 12.375 -25.4375 C 12.375 -25.269531 12.332031 -25.1875 12.25 -25.1875 C 11.394531 -25.1875 10.757812 -25.101562 10.34375 -24.9375 C 9.9375 -24.78125 9.664062 -24.5 9.53125 -24.09375 C 9.394531 -23.695312 9.328125 -23.085938 9.328125 -22.265625 Z M 9.328125 -3.328125 "/></g></g></g><g fill="#f4c87a" fill-opacity="1"><g transform="translate(188.213667, 219.840863)"><g><path d="M 27.328125 -25.6875 C 27.410156 -25.6875 27.453125 -25.601562 27.453125 -25.4375 C 27.453125 -25.269531 27.410156 -25.1875 27.328125 -25.1875 C 26.335938 -25.1875 25.390625 -24.75 24.484375 -23.875 C 23.585938 -23 22.863281 -21.820312 22.3125 -20.34375 L 14.71875 -0.046875 C 14.6875 0.0664062 14.535156 0.125 14.265625 0.125 C 13.984375 0.125 13.832031 0.0664062 13.8125 -0.046875 L 3.328125 -22.265625 C 2.835938 -23.253906 2.34375 -23.988281 1.84375 -24.46875 C 1.351562 -24.945312 0.804688 -25.1875 0.203125 -25.1875 C 0.117188 -25.1875 0.078125 -25.269531 0.078125 -25.4375 C 0.078125 -25.601562 0.117188 -25.6875 0.203125 -25.6875 C 0.617188 -25.6875 0.90625 -25.671875 1.0625 -25.640625 C 1.613281 -25.585938 2.328125 -25.5625 3.203125 -25.5625 C 5.554688 -25.5625 7.554688 -25.585938 9.203125 -25.640625 C 9.640625 -25.671875 10.1875 -25.6875 10.84375 -25.6875 C 10.925781 -25.6875 10.96875 -25.601562 10.96875 -25.4375 C 10.96875 -25.269531 10.925781 -25.1875 10.84375 -25.1875 C 10.019531 -25.1875 9.382812 -25.015625 8.9375 -24.671875 C 8.488281 -24.328125 8.265625 -23.84375 8.265625 -23.21875 C 8.265625 -22.75 8.414062 -22.1875 8.71875 -21.53125 L 15.828125 -6.375 L 21.15625 -20.46875 C 21.4375 -21.226562 21.578125 -21.882812 21.578125 -22.4375 C 21.578125 -23.289062 21.320312 -23.960938 20.8125 -24.453125 C 20.300781 -24.941406 19.566406 -25.1875 18.609375 -25.1875 C 18.535156 -25.1875 18.5 -25.269531 18.5 -25.4375 C 18.5 -25.601562 18.535156 -25.6875 18.609375 -25.6875 L 20.625 -25.640625 C 21.78125 -25.585938 22.8125 -25.5625 23.71875 -25.5625 C 24.226562 -25.5625 24.867188 -25.585938 25.640625 -25.640625 Z M 27.328125 -25.6875 "/></g></g></g><g fill="#f4c87a" fill-opacity="1"><g transform="translate(219.440904, 219.840863)"><g><path d="M 9.328125 -3.328125 C 9.328125 -2.484375 9.394531 -1.867188 9.53125 -1.484375 C 9.664062 -1.097656 9.929688 -0.835938 10.328125 -0.703125 C 10.734375 -0.566406 11.375 -0.5 12.25 -0.5 C 12.332031 -0.5 12.375 -0.414062 12.375 -0.25 C 12.375 -0.0820312 12.332031 0 12.25 0 C 11.34375 0 10.628906 -0.015625 10.109375 -0.046875 L 6.984375 -0.078125 L 3.9375 -0.046875 C 3.394531 -0.015625 2.65625 0 1.71875 0 C 1.664062 0 1.640625 -0.0820312 1.640625 -0.25 C 1.640625 -0.414062 1.664062 -0.5 1.71875 -0.5 C 2.601562 -0.5 3.25 -0.566406 3.65625 -0.703125 C 4.070312 -0.835938 4.351562 -1.101562 4.5 -1.5 C 4.644531 -1.894531 4.71875 -2.503906 4.71875 -3.328125 L 4.71875 -22.359375 C 4.71875 -23.179688 4.644531 -23.78125 4.5 -24.15625 C 4.351562 -24.539062 4.070312 -24.804688 3.65625 -24.953125 C 3.25 -25.109375 2.601562 -25.1875 1.71875 -25.1875 C 1.664062 -25.1875 1.640625 -25.269531 1.640625 -25.4375 C 1.640625 -25.601562 1.664062 -25.6875 1.71875 -25.6875 L 3.9375 -25.640625 C 5.195312 -25.585938 6.210938 -25.5625 6.984375 -25.5625 C 7.835938 -25.5625 8.894531 -25.585938 10.15625 -25.640625 L 12.25 -25.6875 C 12.332031 -25.6875 12.375 -25.601562 12.375 -25.4375 C 12.375 -25.269531 12.332031 -25.1875 12.25 -25.1875 C 11.394531 -25.1875 10.757812 -25.101562 10.34375 -24.9375 C 9.9375 -24.78125 9.664062 -24.5 9.53125 -24.09375 C 9.394531 -23.695312 9.328125 -23.085938 9.328125 -22.265625 Z M 9.328125 -3.328125 "/></g></g></g><g fill="#f4c87a" fill-opacity="1"><g transform="translate(237.602583, 219.840863)"><g><path d="M 29.46875 -0.5 C 29.601562 -0.5 29.671875 -0.414062 29.671875 -0.25 C 29.671875 -0.0820312 29.601562 0 29.46875 0 C 28.914062 0 28.066406 -0.0234375 26.921875 -0.078125 C 25.710938 -0.140625 24.847656 -0.171875 24.328125 -0.171875 C 23.640625 -0.171875 22.804688 -0.140625 21.828125 -0.078125 C 20.890625 -0.0234375 20.148438 0 19.609375 0 C 19.492188 0 19.4375 -0.0820312 19.4375 -0.25 C 19.4375 -0.414062 19.492188 -0.5 19.609375 -0.5 C 20.316406 -0.5 20.828125 -0.570312 21.140625 -0.71875 C 21.453125 -0.863281 21.609375 -1.128906 21.609375 -1.515625 C 21.609375 -1.984375 21.335938 -2.765625 20.796875 -3.859375 L 18 -9.40625 L 7.890625 -9.40625 L 6.28125 -5.828125 C 5.925781 -5.035156 5.75 -4.296875 5.75 -3.609375 C 5.75 -2.628906 6.097656 -1.863281 6.796875 -1.3125 C 7.492188 -0.769531 8.429688 -0.5 9.609375 -0.5 C 9.753906 -0.5 9.828125 -0.414062 9.828125 -0.25 C 9.828125 -0.0820312 9.753906 0 9.609375 0 C 9.117188 0 8.410156 -0.0234375 7.484375 -0.078125 C 6.441406 -0.140625 5.535156 -0.171875 4.765625 -0.171875 C 4.023438 -0.171875 3.132812 -0.140625 2.09375 -0.078125 C 1.164062 -0.0234375 0.410156 0 -0.171875 0 C -0.273438 0 -0.328125 -0.0820312 -0.328125 -0.25 C -0.328125 -0.414062 -0.273438 -0.5 -0.171875 -0.5 C 0.597656 -0.5 1.242188 -0.65625 1.765625 -0.96875 C 2.285156 -1.28125 2.804688 -1.835938 3.328125 -2.640625 C 3.847656 -3.453125 4.460938 -4.65625 5.171875 -6.25 L 14.09375 -25.84375 C 14.144531 -25.925781 14.269531 -25.96875 14.46875 -25.96875 C 14.6875 -25.96875 14.804688 -25.925781 14.828125 -25.84375 L 25.109375 -5.625 C 26.066406 -3.6875 26.859375 -2.347656 27.484375 -1.609375 C 28.117188 -0.867188 28.78125 -0.5 29.46875 -0.5 Z M 8.421875 -10.5625 L 17.375 -10.5625 L 12.65625 -19.9375 Z M 8.421875 -10.5625 "/></g></g></g><g fill="#f4c87a" fill-opacity="1"><g transform="translate(271.129989, 219.840863)"><g/></g></g><g fill="#f4c87a" fill-opacity="1"><g transform="translate(81.891089, 253.221691)"><g><path d="M 6.984375 -6.578125 L 6.9375 -6.578125 C 6.675781 -5.960938 6.257812 -4.921875 5.6875 -3.453125 C 5.113281 -1.984375 4.648438 -0.851562 4.296875 -0.0625 C 4.285156 -0.0195312 4.207031 0 4.0625 0 C 3.925781 0 3.847656 -0.0195312 3.828125 -0.0625 C 3.828125 -0.0625 3.582031 -0.554688 3.09375 -1.546875 L 1.828125 -4.28125 C 1.828125 -4.28125 1.398438 -5.238281 0.546875 -7.15625 C 0.421875 -7.445312 0.300781 -7.625 0.1875 -7.6875 C 0.144531 -7.707031 0.125 -7.742188 0.125 -7.796875 C 0.125 -7.859375 0.144531 -7.890625 0.1875 -7.890625 L 1.921875 -7.890625 C 1.960938 -7.890625 1.984375 -7.863281 1.984375 -7.8125 C 1.984375 -7.757812 1.976562 -7.726562 1.96875 -7.71875 C 1.957031 -7.707031 1.9375 -7.691406 1.90625 -7.671875 C 1.882812 -7.660156 1.863281 -7.648438 1.84375 -7.640625 C 1.664062 -7.460938 1.617188 -7.265625 1.703125 -7.046875 L 4.140625 -1.59375 L 4.171875 -1.59375 L 6.265625 -7.046875 C 6.273438 -7.066406 6.289062 -7.101562 6.3125 -7.15625 C 6.332031 -7.207031 6.34375 -7.242188 6.34375 -7.265625 C 6.351562 -7.285156 6.363281 -7.3125 6.375 -7.34375 C 6.394531 -7.382812 6.40625 -7.414062 6.40625 -7.4375 L 6.40625 -7.515625 C 6.40625 -7.585938 6.367188 -7.640625 6.296875 -7.671875 C 6.234375 -7.703125 6.203125 -7.734375 6.203125 -7.765625 C 6.203125 -7.847656 6.222656 -7.890625 6.265625 -7.890625 L 7.859375 -7.890625 C 7.898438 -7.890625 7.921875 -7.863281 7.921875 -7.8125 C 7.921875 -7.757812 7.910156 -7.726562 7.890625 -7.71875 C 7.878906 -7.707031 7.859375 -7.691406 7.828125 -7.671875 C 7.804688 -7.660156 7.785156 -7.644531 7.765625 -7.625 C 7.742188 -7.601562 7.726562 -7.578125 7.71875 -7.546875 C 7.707031 -7.523438 7.707031 -7.488281 7.71875 -7.4375 C 7.726562 -7.375 7.753906 -7.289062 7.796875 -7.1875 L 7.859375 -7.046875 L 10.296875 -1.59375 L 10.34375 -1.59375 L 12.4375 -7.046875 C 12.519531 -7.265625 12.472656 -7.460938 12.296875 -7.640625 C 12.285156 -7.648438 12.257812 -7.664062 12.21875 -7.6875 C 12.175781 -7.707031 12.15625 -7.742188 12.15625 -7.796875 C 12.15625 -7.859375 12.175781 -7.890625 12.21875 -7.890625 L 13.734375 -7.890625 C 13.773438 -7.890625 13.796875 -7.863281 13.796875 -7.8125 C 13.796875 -7.757812 13.785156 -7.726562 13.765625 -7.71875 C 13.753906 -7.707031 13.738281 -7.691406 13.71875 -7.671875 C 13.601562 -7.628906 13.484375 -7.457031 13.359375 -7.15625 C 13.015625 -6.375 12.535156 -5.195312 11.921875 -3.625 C 11.304688 -2.050781 10.820312 -0.863281 10.46875 -0.0625 C 10.445312 -0.0195312 10.363281 0 10.21875 0 C 10.082031 0 10.003906 -0.0195312 9.984375 -0.0625 L 8.890625 -2.328125 Z M 6.984375 -6.578125 "/></g></g></g><g fill="#f4c87a" fill-opacity="1"><g transform="translate(97.277578, 253.221691)"><g><path d="M 4.859375 -4.71875 C 5.097656 -4.71875 5.289062 -4.796875 5.4375 -4.953125 C 5.457031 -4.960938 5.472656 -4.988281 5.484375 -5.03125 C 5.503906 -5.070312 5.546875 -5.09375 5.609375 -5.09375 C 5.671875 -5.09375 5.703125 -5.070312 5.703125 -5.03125 L 5.703125 -3.640625 C 5.703125 -3.597656 5.671875 -3.578125 5.609375 -3.578125 C 5.554688 -3.578125 5.523438 -3.582031 5.515625 -3.59375 C 5.503906 -3.613281 5.492188 -3.632812 5.484375 -3.65625 C 5.472656 -3.6875 5.445312 -3.71875 5.40625 -3.75 C 5.363281 -3.789062 5.289062 -3.832031 5.1875 -3.875 C 5.082031 -3.914062 4.972656 -3.9375 4.859375 -3.9375 L 1.8125 -3.9375 L 1.8125 -0.78125 L 5.015625 -0.78125 C 5.378906 -0.78125 5.601562 -0.8125 5.6875 -0.875 C 5.769531 -0.9375 5.828125 -0.988281 5.859375 -1.03125 C 5.890625 -1.082031 5.914062 -1.109375 5.9375 -1.109375 C 5.957031 -1.109375 5.988281 -1.097656 6.03125 -1.078125 C 6.082031 -1.066406 6.109375 -1.054688 6.109375 -1.046875 C 6.109375 -1.035156 6.082031 -0.972656 6.03125 -0.859375 L 5.875 -0.46875 C 5.820312 -0.320312 5.785156 -0.207031 5.765625 -0.125 C 5.742188 -0.0507812 5.71875 -0.0078125 5.6875 0 L 0.5625 0 C 0.519531 0 0.5 -0.0234375 0.5 -0.078125 C 0.5 -0.140625 0.503906 -0.175781 0.515625 -0.1875 C 0.535156 -0.195312 0.554688 -0.207031 0.578125 -0.21875 C 0.609375 -0.226562 0.644531 -0.253906 0.6875 -0.296875 C 0.726562 -0.335938 0.769531 -0.410156 0.8125 -0.515625 C 0.851562 -0.628906 0.875 -0.738281 0.875 -0.84375 L 0.875 -7.046875 C 0.875 -7.285156 0.800781 -7.484375 0.65625 -7.640625 C 0.632812 -7.648438 0.601562 -7.664062 0.5625 -7.6875 C 0.519531 -7.707031 0.5 -7.742188 0.5 -7.796875 C 0.5 -7.859375 0.519531 -7.890625 0.5625 -7.890625 L 5.6875 -7.890625 C 5.71875 -7.890625 5.742188 -7.847656 5.765625 -7.765625 C 5.785156 -7.691406 5.820312 -7.582031 5.875 -7.4375 L 6.03125 -7.046875 C 6.082031 -6.929688 6.109375 -6.863281 6.109375 -6.84375 C 6.109375 -6.832031 6.082031 -6.816406 6.03125 -6.796875 C 5.988281 -6.785156 5.957031 -6.78125 5.9375 -6.78125 C 5.925781 -6.78125 5.910156 -6.789062 5.890625 -6.8125 C 5.878906 -6.832031 5.863281 -6.851562 5.84375 -6.875 C 5.820312 -6.90625 5.769531 -6.953125 5.6875 -7.015625 C 5.601562 -7.078125 5.378906 -7.109375 5.015625 -7.109375 L 1.8125 -7.109375 L 1.8125 -4.71875 Z M 4.859375 -4.71875 "/></g></g></g><g fill="#f4c87a" fill-opacity="1"><g transform="translate(105.234769, 253.221691)"><g><path d="M 0.9375 -0.84375 L 0.9375 -7.046875 C 0.9375 -7.285156 0.859375 -7.484375 0.703125 -7.640625 C 0.691406 -7.648438 0.660156 -7.664062 0.609375 -7.6875 C 0.566406 -7.707031 0.546875 -7.742188 0.546875 -7.796875 C 0.546875 -7.859375 0.570312 -7.890625 0.625 -7.890625 L 2.171875 -7.890625 C 2.210938 -7.890625 2.234375 -7.863281 2.234375 -7.8125 C 2.234375 -7.757812 2.226562 -7.726562 2.21875 -7.71875 C 2.207031 -7.707031 2.1875 -7.691406 2.15625 -7.671875 C 2.132812 -7.660156 2.101562 -7.632812 2.0625 -7.59375 C 2.019531 -7.5625 1.972656 -7.488281 1.921875 -7.375 C 1.878906 -7.269531 1.859375 -7.160156 1.859375 -7.046875 L 1.859375 -0.78125 L 5.0625 -0.78125 C 5.425781 -0.78125 5.664062 -0.820312 5.78125 -0.90625 C 5.832031 -0.945312 5.875 -0.988281 5.90625 -1.03125 C 5.9375 -1.082031 5.960938 -1.109375 5.984375 -1.109375 C 6.003906 -1.109375 6.035156 -1.097656 6.078125 -1.078125 C 6.128906 -1.066406 6.15625 -1.054688 6.15625 -1.046875 C 6.15625 -1.035156 6.128906 -0.972656 6.078125 -0.859375 L 5.9375 -0.46875 C 5.875 -0.320312 5.832031 -0.210938 5.8125 -0.140625 C 5.789062 -0.0664062 5.765625 -0.0195312 5.734375 0 L 0.625 0 C 0.570312 0 0.546875 -0.0234375 0.546875 -0.078125 C 0.546875 -0.140625 0.550781 -0.175781 0.5625 -0.1875 C 0.582031 -0.195312 0.601562 -0.207031 0.625 -0.21875 C 0.65625 -0.226562 0.691406 -0.253906 0.734375 -0.296875 C 0.773438 -0.335938 0.816406 -0.410156 0.859375 -0.515625 C 0.910156 -0.628906 0.9375 -0.738281 0.9375 -0.84375 Z M 0.9375 -0.84375 "/></g></g></g><g fill="#f4c87a" fill-opacity="1"><g transform="translate(112.984787, 253.221691)"><g><path d="M 4.453125 -0.546875 C 5.179688 -0.546875 5.832031 -0.707031 6.40625 -1.03125 C 6.976562 -1.363281 7.445312 -1.804688 7.8125 -2.359375 C 7.851562 -2.429688 7.882812 -2.453125 7.90625 -2.421875 C 7.925781 -2.398438 7.953125 -2.363281 7.984375 -2.3125 L 8.140625 -2.109375 C 8.191406 -2.023438 8.207031 -1.972656 8.1875 -1.953125 C 8 -1.554688 7.675781 -1.171875 7.21875 -0.796875 C 6.382812 -0.0976562 5.460938 0.25 4.453125 0.25 C 3.867188 0.25 3.320312 0.140625 2.8125 -0.078125 C 2.300781 -0.304688 1.867188 -0.609375 1.515625 -0.984375 C 1.160156 -1.367188 0.882812 -1.816406 0.6875 -2.328125 C 0.488281 -2.835938 0.390625 -3.363281 0.390625 -3.90625 C 0.390625 -4.457031 0.492188 -4.984375 0.703125 -5.484375 C 0.921875 -5.984375 1.210938 -6.414062 1.578125 -6.78125 C 1.941406 -7.144531 2.375 -7.4375 2.875 -7.65625 C 3.375 -7.875 3.878906 -7.984375 4.390625 -7.984375 C 4.992188 -7.984375 5.597656 -7.867188 6.203125 -7.640625 L 6.4375 -7.5625 C 6.46875 -7.539062 6.507812 -7.550781 6.5625 -7.59375 C 6.625 -7.632812 6.6875 -7.65625 6.75 -7.65625 C 6.8125 -7.65625 6.863281 -7.625 6.90625 -7.5625 C 6.914062 -7.550781 6.921875 -7.515625 6.921875 -7.453125 C 6.910156 -7.359375 6.945312 -7.144531 7.03125 -6.8125 L 7.15625 -6.28125 C 7.1875 -6.144531 7.203125 -6.054688 7.203125 -6.015625 C 7.203125 -6.003906 7.160156 -5.976562 7.078125 -5.9375 C 6.992188 -5.894531 6.945312 -5.882812 6.9375 -5.90625 C 6.664062 -6.375 6.328125 -6.695312 5.921875 -6.875 C 5.523438 -7.050781 5.023438 -7.140625 4.421875 -7.140625 C 3.816406 -7.140625 3.269531 -7 2.78125 -6.71875 C 2.300781 -6.445312 1.925781 -6.066406 1.65625 -5.578125 C 1.394531 -5.097656 1.265625 -4.550781 1.265625 -3.9375 C 1.265625 -3.53125 1.359375 -3.117188 1.546875 -2.703125 C 1.734375 -2.285156 1.972656 -1.921875 2.265625 -1.609375 C 2.554688 -1.296875 2.894531 -1.039062 3.28125 -0.84375 C 3.675781 -0.644531 4.066406 -0.546875 4.453125 -0.546875 Z M 4.453125 -0.546875 "/></g></g></g><g fill="#f4c87a" fill-opacity="1"><g transform="translate(122.979976, 253.221691)"><g><path d="M 3.578125 -0.8125 C 3.898438 -0.6875 4.210938 -0.625 4.515625 -0.625 C 5.535156 -0.625 6.347656 -0.925781 6.953125 -1.53125 C 7.566406 -2.132812 7.875 -2.945312 7.875 -3.96875 C 7.875 -4.3125 7.785156 -4.675781 7.609375 -5.0625 C 7.429688 -5.445312 7.191406 -5.800781 6.890625 -6.125 C 6.597656 -6.445312 6.234375 -6.710938 5.796875 -6.921875 C 5.367188 -7.128906 4.878906 -7.234375 4.328125 -7.234375 C 3.785156 -7.234375 3.269531 -7.09375 2.78125 -6.8125 C 2.289062 -6.539062 1.914062 -6.160156 1.65625 -5.671875 C 1.394531 -5.179688 1.265625 -4.613281 1.265625 -3.96875 C 1.265625 -3.320312 1.5 -2.695312 1.96875 -2.09375 C 2.4375 -1.488281 2.972656 -1.0625 3.578125 -0.8125 Z M 1.5625 -1.046875 C 1.195312 -1.421875 0.910156 -1.863281 0.703125 -2.375 C 0.492188 -2.894531 0.390625 -3.429688 0.390625 -3.984375 C 0.390625 -4.535156 0.5 -5.0625 0.71875 -5.5625 C 0.945312 -6.0625 1.242188 -6.492188 1.609375 -6.859375 C 1.972656 -7.222656 2.40625 -7.515625 2.90625 -7.734375 C 3.40625 -7.953125 3.898438 -8.0625 4.390625 -8.0625 C 4.890625 -8.0625 5.351562 -8 5.78125 -7.875 C 6.625 -7.613281 7.328125 -7.132812 7.890625 -6.4375 C 8.453125 -5.75 8.734375 -4.9375 8.734375 -4 C 8.734375 -3.457031 8.632812 -2.929688 8.4375 -2.421875 C 8.238281 -1.921875 7.957031 -1.476562 7.59375 -1.09375 C 7.238281 -0.707031 6.785156 -0.398438 6.234375 -0.171875 C 5.691406 0.0546875 5.117188 0.171875 4.515625 0.171875 C 3.910156 0.171875 3.359375 0.0625 2.859375 -0.15625 C 2.359375 -0.375 1.925781 -0.671875 1.5625 -1.046875 Z M 1.5625 -1.046875 "/></g></g></g><g fill="#f4c87a" fill-opacity="1"><g transform="translate(133.577411, 253.221691)"><g><path d="M 1.859375 -7.4375 C 1.660156 -7.507812 1.503906 -7.546875 1.390625 -7.546875 C 1.210938 -7.546875 1.070312 -7.535156 0.96875 -7.515625 C 0.863281 -7.503906 0.804688 -7.503906 0.796875 -7.515625 C 0.796875 -7.535156 0.796875 -7.5625 0.796875 -7.59375 C 0.796875 -7.625 0.804688 -7.65625 0.828125 -7.6875 C 0.847656 -7.726562 0.875 -7.75 0.90625 -7.75 C 1.382812 -7.863281 2.039062 -7.921875 2.875 -7.921875 L 5.296875 -3.96875 L 5.34375 -3.96875 L 7.65625 -7.921875 C 8.488281 -7.921875 9.144531 -7.863281 9.625 -7.75 C 9.695312 -7.738281 9.734375 -7.679688 9.734375 -7.578125 C 9.734375 -7.515625 9.679688 -7.492188 9.578125 -7.515625 C 9.484375 -7.535156 9.347656 -7.546875 9.171875 -7.546875 C 9.003906 -7.546875 8.820312 -7.507812 8.625 -7.4375 L 9.546875 -0.84375 C 9.597656 -0.5 9.703125 -0.289062 9.859375 -0.21875 C 9.898438 -0.195312 9.921875 -0.15625 9.921875 -0.09375 C 9.921875 -0.03125 9.898438 0 9.859375 0 L 8.265625 0 C 8.222656 0 8.203125 -0.0234375 8.203125 -0.078125 C 8.203125 -0.140625 8.207031 -0.175781 8.21875 -0.1875 C 8.226562 -0.195312 8.25 -0.207031 8.28125 -0.21875 C 8.363281 -0.257812 8.4375 -0.351562 8.5 -0.5 C 8.5625 -0.65625 8.59375 -0.757812 8.59375 -0.8125 C 8.59375 -0.875 8.59375 -0.914062 8.59375 -0.9375 L 7.8125 -6.65625 L 7.78125 -6.65625 L 5.40625 -2.5 C 5.394531 -2.476562 5.332031 -2.46875 5.21875 -2.46875 C 5.113281 -2.476562 5.0625 -2.488281 5.0625 -2.5 L 2.578125 -6.65625 L 2.53125 -6.65625 L 1.828125 -0.9375 C 1.804688 -0.832031 1.820312 -0.707031 1.875 -0.5625 C 1.9375 -0.425781 1.988281 -0.335938 2.03125 -0.296875 C 2.070312 -0.253906 2.113281 -0.222656 2.15625 -0.203125 C 2.195312 -0.191406 2.21875 -0.15625 2.21875 -0.09375 C 2.21875 -0.03125 2.195312 0 2.15625 0 L 0.6875 0 C 0.644531 0 0.625 -0.0234375 0.625 -0.078125 C 0.625 -0.140625 0.628906 -0.175781 0.640625 -0.1875 C 0.648438 -0.195312 0.671875 -0.207031 0.703125 -0.21875 C 0.847656 -0.28125 0.945312 -0.488281 1 -0.84375 Z M 1.859375 -7.4375 "/></g></g></g><g fill="#f4c87a" fill-opacity="1"><g transform="translate(145.629869, 253.221691)"><g><path d="M 4.859375 -4.71875 C 5.097656 -4.71875 5.289062 -4.796875 5.4375 -4.953125 C 5.457031 -4.960938 5.472656 -4.988281 5.484375 -5.03125 C 5.503906 -5.070312 5.546875 -5.09375 5.609375 -5.09375 C 5.671875 -5.09375 5.703125 -5.070312 5.703125 -5.03125 L 5.703125 -3.640625 C 5.703125 -3.597656 5.671875 -3.578125 5.609375 -3.578125 C 5.554688 -3.578125 5.523438 -3.582031 5.515625 -3.59375 C 5.503906 -3.613281 5.492188 -3.632812 5.484375 -3.65625 C 5.472656 -3.6875 5.445312 -3.71875 5.40625 -3.75 C 5.363281 -3.789062 5.289062 -3.832031 5.1875 -3.875 C 5.082031 -3.914062 4.972656 -3.9375 4.859375 -3.9375 L 1.8125 -3.9375 L 1.8125 -0.78125 L 5.015625 -0.78125 C 5.378906 -0.78125 5.601562 -0.8125 5.6875 -0.875 C 5.769531 -0.9375 5.828125 -0.988281 5.859375 -1.03125 C 5.890625 -1.082031 5.914062 -1.109375 5.9375 -1.109375 C 5.957031 -1.109375 5.988281 -1.097656 6.03125 -1.078125 C 6.082031 -1.066406 6.109375 -1.054688 6.109375 -1.046875 C 6.109375 -1.035156 6.082031 -0.972656 6.03125 -0.859375 L 5.875 -0.46875 C 5.820312 -0.320312 5.785156 -0.207031 5.765625 -0.125 C 5.742188 -0.0507812 5.71875 -0.0078125 5.6875 0 L 0.5625 0 C 0.519531 0 0.5 -0.0234375 0.5 -0.078125 C 0.5 -0.140625 0.503906 -0.175781 0.515625 -0.1875 C 0.535156 -0.195312 0.554688 -0.207031 0.578125 -0.21875 C 0.609375 -0.226562 0.644531 -0.253906 0.6875 -0.296875 C 0.726562 -0.335938 0.769531 -0.410156 0.8125 -0.515625 C 0.851562 -0.628906 0.875 -0.738281 0.875 -0.84375 L 0.875 -7.046875 C 0.875 -7.285156 0.800781 -7.484375 0.65625 -7.640625 C 0.632812 -7.648438 0.601562 -7.664062 0.5625 -7.6875 C 0.519531 -7.707031 0.5 -7.742188 0.5 -7.796875 C 0.5 -7.859375 0.519531 -7.890625 0.5625 -7.890625 L 5.6875 -7.890625 C 5.71875 -7.890625 5.742188 -7.847656 5.765625 -7.765625 C 5.785156 -7.691406 5.820312 -7.582031 5.875 -7.4375 L 6.03125 -7.046875 C 6.082031 -6.929688 6.109375 -6.863281 6.109375 -6.84375 C 6.109375 -6.832031 6.082031 -6.816406 6.03125 -6.796875 C 5.988281 -6.785156 5.957031 -6.78125 5.9375 -6.78125 C 5.925781 -6.78125 5.910156 -6.789062 5.890625 -6.8125 C 5.878906 -6.832031 5.863281 -6.851562 5.84375 -6.875 C 5.820312 -6.90625 5.769531 -6.953125 5.6875 -7.015625 C 5.601562 -7.078125 5.378906 -7.109375 5.015625 -7.109375 L 1.8125 -7.109375 L 1.8125 -4.71875 Z M 4.859375 -4.71875 "/></g></g></g><g fill="#f4c87a" fill-opacity="1"><g transform="translate(153.58706, 253.221691)"><g/></g></g><g fill="#f4c87a" fill-opacity="1"><g transform="translate(157.535707, 253.221691)"><g><path d="M 8.234375 -7.890625 C 8.265625 -7.890625 8.289062 -7.847656 8.3125 -7.765625 C 8.332031 -7.691406 8.375 -7.582031 8.4375 -7.4375 C 8.4375 -7.4375 8.488281 -7.304688 8.59375 -7.046875 C 8.632812 -6.929688 8.65625 -6.863281 8.65625 -6.84375 C 8.65625 -6.832031 8.628906 -6.816406 8.578125 -6.796875 C 8.535156 -6.785156 8.507812 -6.78125 8.5 -6.78125 C 8.476562 -6.78125 8.445312 -6.800781 8.40625 -6.84375 C 8.375 -6.894531 8.316406 -6.953125 8.234375 -7.015625 C 8.148438 -7.078125 7.925781 -7.109375 7.5625 -7.109375 L 4.859375 -7.109375 L 4.859375 -0.84375 C 4.859375 -0.601562 4.9375 -0.410156 5.09375 -0.265625 C 5.101562 -0.242188 5.128906 -0.222656 5.171875 -0.203125 C 5.210938 -0.191406 5.234375 -0.15625 5.234375 -0.09375 C 5.234375 -0.03125 5.210938 0 5.171875 0 L 3.609375 0 C 3.566406 0 3.546875 -0.0234375 3.546875 -0.078125 C 3.546875 -0.140625 3.550781 -0.175781 3.5625 -0.1875 C 3.582031 -0.195312 3.601562 -0.207031 3.625 -0.21875 C 3.65625 -0.226562 3.6875 -0.253906 3.71875 -0.296875 C 3.757812 -0.335938 3.800781 -0.410156 3.84375 -0.515625 C 3.894531 -0.628906 3.921875 -0.738281 3.921875 -0.84375 L 3.921875 -7.109375 L 1.203125 -7.109375 C 0.753906 -7.109375 0.484375 -7.035156 0.390625 -6.890625 C 0.335938 -6.828125 0.300781 -6.789062 0.28125 -6.78125 C 0.269531 -6.78125 0.238281 -6.785156 0.1875 -6.796875 C 0.144531 -6.816406 0.125 -6.832031 0.125 -6.84375 C 0.125 -6.863281 0.144531 -6.929688 0.1875 -7.046875 L 0.34375 -7.4375 C 0.394531 -7.570312 0.429688 -7.675781 0.453125 -7.75 C 0.472656 -7.832031 0.503906 -7.878906 0.546875 -7.890625 Z M 8.234375 -7.890625 "/></g></g></g><g fill="#f4c87a" fill-opacity="1"><g transform="translate(167.786248, 253.221691)"><g><path d="M 3.578125 -0.8125 C 3.898438 -0.6875 4.210938 -0.625 4.515625 -0.625 C 5.535156 -0.625 6.347656 -0.925781 6.953125 -1.53125 C 7.566406 -2.132812 7.875 -2.945312 7.875 -3.96875 C 7.875 -4.3125 7.785156 -4.675781 7.609375 -5.0625 C 7.429688 -5.445312 7.191406 -5.800781 6.890625 -6.125 C 6.597656 -6.445312 6.234375 -6.710938 5.796875 -6.921875 C 5.367188 -7.128906 4.878906 -7.234375 4.328125 -7.234375 C 3.785156 -7.234375 3.269531 -7.09375 2.78125 -6.8125 C 2.289062 -6.539062 1.914062 -6.160156 1.65625 -5.671875 C 1.394531 -5.179688 1.265625 -4.613281 1.265625 -3.96875 C 1.265625 -3.320312 1.5 -2.695312 1.96875 -2.09375 C 2.4375 -1.488281 2.972656 -1.0625 3.578125 -0.8125 Z M 1.5625 -1.046875 C 1.195312 -1.421875 0.910156 -1.863281 0.703125 -2.375 C 0.492188 -2.894531 0.390625 -3.429688 0.390625 -3.984375 C 0.390625 -4.535156 0.5 -5.0625 0.71875 -5.5625 C 0.945312 -6.0625 1.242188 -6.492188 1.609375 -6.859375 C 1.972656 -7.222656 2.40625 -7.515625 2.90625 -7.734375 C 3.40625 -7.953125 3.898438 -8.0625 4.390625 -8.0625 C 4.890625 -8.0625 5.351562 -8 5.78125 -7.875 C 6.625 -7.613281 7.328125 -7.132812 7.890625 -6.4375 C 8.453125 -5.75 8.734375 -4.9375 8.734375 -4 C 8.734375 -3.457031 8.632812 -2.929688 8.4375 -2.421875 C 8.238281 -1.921875 7.957031 -1.476562 7.59375 -1.09375 C 7.238281 -0.707031 6.785156 -0.398438 6.234375 -0.171875 C 5.691406 0.0546875 5.117188 0.171875 4.515625 0.171875 C 3.910156 0.171875 3.359375 0.0625 2.859375 -0.15625 C 2.359375 -0.375 1.925781 -0.671875 1.5625 -1.046875 Z M 1.5625 -1.046875 "/></g></g></g><g fill="#f4c87a" fill-opacity="1"><g transform="translate(178.383682, 253.221691)"><g/></g></g><g fill="#f4c87a" fill-opacity="1"><g transform="translate(182.332328, 253.221691)"><g><path d="M 0.625 -7.890625 L 2.171875 -7.890625 C 2.210938 -7.890625 2.234375 -7.863281 2.234375 -7.8125 C 2.234375 -7.757812 2.226562 -7.726562 2.21875 -7.71875 C 2.207031 -7.707031 2.1875 -7.691406 2.15625 -7.671875 C 2.132812 -7.660156 2.101562 -7.632812 2.0625 -7.59375 C 2.019531 -7.5625 1.972656 -7.488281 1.921875 -7.375 C 1.878906 -7.269531 1.859375 -7.160156 1.859375 -7.046875 L 1.859375 -4.859375 L 7.328125 -4.859375 L 7.328125 -7.046875 C 7.328125 -7.285156 7.253906 -7.484375 7.109375 -7.640625 C 7.085938 -7.648438 7.054688 -7.664062 7.015625 -7.6875 C 6.972656 -7.707031 6.953125 -7.742188 6.953125 -7.796875 C 6.953125 -7.859375 6.972656 -7.890625 7.015625 -7.890625 L 8.578125 -7.890625 C 8.617188 -7.890625 8.640625 -7.863281 8.640625 -7.8125 C 8.640625 -7.757812 8.632812 -7.726562 8.625 -7.71875 C 8.613281 -7.707031 8.59375 -7.691406 8.5625 -7.671875 C 8.539062 -7.660156 8.507812 -7.632812 8.46875 -7.59375 C 8.425781 -7.5625 8.378906 -7.488281 8.328125 -7.375 C 8.285156 -7.269531 8.265625 -7.160156 8.265625 -7.046875 L 8.265625 -0.84375 C 8.265625 -0.601562 8.34375 -0.410156 8.5 -0.265625 C 8.507812 -0.242188 8.535156 -0.222656 8.578125 -0.203125 C 8.617188 -0.191406 8.640625 -0.15625 8.640625 -0.09375 C 8.640625 -0.03125 8.617188 0 8.578125 0 L 7.015625 0 C 6.972656 0 6.953125 -0.0234375 6.953125 -0.078125 C 6.953125 -0.140625 6.957031 -0.175781 6.96875 -0.1875 C 6.988281 -0.195312 7.007812 -0.207031 7.03125 -0.21875 C 7.0625 -0.226562 7.097656 -0.253906 7.140625 -0.296875 C 7.179688 -0.335938 7.222656 -0.410156 7.265625 -0.515625 C 7.304688 -0.628906 7.328125 -0.738281 7.328125 -0.84375 L 7.328125 -4.0625 L 1.859375 -4.0625 L 1.859375 -0.84375 C 1.859375 -0.601562 1.9375 -0.410156 2.09375 -0.265625 C 2.101562 -0.242188 2.128906 -0.222656 2.171875 -0.203125 C 2.210938 -0.191406 2.234375 -0.15625 2.234375 -0.09375 C 2.234375 -0.03125 2.210938 0 2.171875 0 L 0.625 0 C 0.570312 0 0.546875 -0.0234375 0.546875 -0.078125 C 0.546875 -0.140625 0.550781 -0.175781 0.5625 -0.1875 C 0.582031 -0.195312 0.601562 -0.207031 0.625 -0.21875 C 0.65625 -0.226562 0.691406 -0.253906 0.734375 -0.296875 C 0.773438 -0.335938 0.816406 -0.410156 0.859375 -0.515625 C 0.910156 -0.628906 0.9375 -0.738281 0.9375 -0.84375 L 0.9375 -7.046875 C 0.9375 -7.285156 0.859375 -7.484375 0.703125 -7.640625 C 0.691406 -7.648438 0.660156 -7.664062 0.609375 -7.6875 C 0.566406 -7.707031 0.546875 -7.742188 0.546875 -7.796875 C 0.546875 -7.859375 0.570312 -7.890625 0.625 -7.890625 Z M 0.625 -7.890625 "/></g></g></g><g fill="#f4c87a" fill-opacity="1"><g transform="translate(193.103209, 253.221691)"><g><path d="M 3.578125 -0.8125 C 3.898438 -0.6875 4.210938 -0.625 4.515625 -0.625 C 5.535156 -0.625 6.347656 -0.925781 6.953125 -1.53125 C 7.566406 -2.132812 7.875 -2.945312 7.875 -3.96875 C 7.875 -4.3125 7.785156 -4.675781 7.609375 -5.0625 C 7.429688 -5.445312 7.191406 -5.800781 6.890625 -6.125 C 6.597656 -6.445312 6.234375 -6.710938 5.796875 -6.921875 C 5.367188 -7.128906 4.878906 -7.234375 4.328125 -7.234375 C 3.785156 -7.234375 3.269531 -7.09375 2.78125 -6.8125 C 2.289062 -6.539062 1.914062 -6.160156 1.65625 -5.671875 C 1.394531 -5.179688 1.265625 -4.613281 1.265625 -3.96875 C 1.265625 -3.320312 1.5 -2.695312 1.96875 -2.09375 C 2.4375 -1.488281 2.972656 -1.0625 3.578125 -0.8125 Z M 1.5625 -1.046875 C 1.195312 -1.421875 0.910156 -1.863281 0.703125 -2.375 C 0.492188 -2.894531 0.390625 -3.429688 0.390625 -3.984375 C 0.390625 -4.535156 0.5 -5.0625 0.71875 -5.5625 C 0.945312 -6.0625 1.242188 -6.492188 1.609375 -6.859375 C 1.972656 -7.222656 2.40625 -7.515625 2.90625 -7.734375 C 3.40625 -7.953125 3.898438 -8.0625 4.390625 -8.0625 C 4.890625 -8.0625 5.351562 -8 5.78125 -7.875 C 6.625 -7.613281 7.328125 -7.132812 7.890625 -6.4375 C 8.453125 -5.75 8.734375 -4.9375 8.734375 -4 C 8.734375 -3.457031 8.632812 -2.929688 8.4375 -2.421875 C 8.238281 -1.921875 7.957031 -1.476562 7.59375 -1.09375 C 7.238281 -0.707031 6.785156 -0.398438 6.234375 -0.171875 C 5.691406 0.0546875 5.117188 0.171875 4.515625 0.171875 C 3.910156 0.171875 3.359375 0.0625 2.859375 -0.15625 C 2.359375 -0.375 1.925781 -0.671875 1.5625 -1.046875 Z M 1.5625 -1.046875 "/></g></g></g><g fill="#f4c87a" fill-opacity="1"><g transform="translate(203.700643, 253.221691)"><g><path d="M 1.859375 -7.4375 C 1.660156 -7.507812 1.503906 -7.546875 1.390625 -7.546875 C 1.210938 -7.546875 1.070312 -7.535156 0.96875 -7.515625 C 0.863281 -7.503906 0.804688 -7.503906 0.796875 -7.515625 C 0.796875 -7.535156 0.796875 -7.5625 0.796875 -7.59375 C 0.796875 -7.625 0.804688 -7.65625 0.828125 -7.6875 C 0.847656 -7.726562 0.875 -7.75 0.90625 -7.75 C 1.382812 -7.863281 2.039062 -7.921875 2.875 -7.921875 L 5.296875 -3.96875 L 5.34375 -3.96875 L 7.65625 -7.921875 C 8.488281 -7.921875 9.144531 -7.863281 9.625 -7.75 C 9.695312 -7.738281 9.734375 -7.679688 9.734375 -7.578125 C 9.734375 -7.515625 9.679688 -7.492188 9.578125 -7.515625 C 9.484375 -7.535156 9.347656 -7.546875 9.171875 -7.546875 C 9.003906 -7.546875 8.820312 -7.507812 8.625 -7.4375 L 9.546875 -0.84375 C 9.597656 -0.5 9.703125 -0.289062 9.859375 -0.21875 C 9.898438 -0.195312 9.921875 -0.15625 9.921875 -0.09375 C 9.921875 -0.03125 9.898438 0 9.859375 0 L 8.265625 0 C 8.222656 0 8.203125 -0.0234375 8.203125 -0.078125 C 8.203125 -0.140625 8.207031 -0.175781 8.21875 -0.1875 C 8.226562 -0.195312 8.25 -0.207031 8.28125 -0.21875 C 8.363281 -0.257812 8.4375 -0.351562 8.5 -0.5 C 8.5625 -0.65625 8.59375 -0.757812 8.59375 -0.8125 C 8.59375 -0.875 8.59375 -0.914062 8.59375 -0.9375 L 7.8125 -6.65625 L 7.78125 -6.65625 L 5.40625 -2.5 C 5.394531 -2.476562 5.332031 -2.46875 5.21875 -2.46875 C 5.113281 -2.476562 5.0625 -2.488281 5.0625 -2.5 L 2.578125 -6.65625 L 2.53125 -6.65625 L 1.828125 -0.9375 C 1.804688 -0.832031 1.820312 -0.707031 1.875 -0.5625 C 1.9375 -0.425781 1.988281 -0.335938 2.03125 -0.296875 C 2.070312 -0.253906 2.113281 -0.222656 2.15625 -0.203125 C 2.195312 -0.191406 2.21875 -0.15625 2.21875 -0.09375 C 2.21875 -0.03125 2.195312 0 2.15625 0 L 0.6875 0 C 0.644531 0 0.625 -0.0234375 0.625 -0.078125 C 0.625 -0.140625 0.628906 -0.175781 0.640625 -0.1875 C 0.648438 -0.195312 0.671875 -0.207031 0.703125 -0.21875 C 0.847656 -0.28125 0.945312 -0.488281 1 -0.84375 Z M 1.859375 -7.4375 "/></g></g></g><g fill="#f4c87a" fill-opacity="1"><g transform="translate(215.753102, 253.221691)"><g><path d="M 4.859375 -4.71875 C 5.097656 -4.71875 5.289062 -4.796875 5.4375 -4.953125 C 5.457031 -4.960938 5.472656 -4.988281 5.484375 -5.03125 C 5.503906 -5.070312 5.546875 -5.09375 5.609375 -5.09375 C 5.671875 -5.09375 5.703125 -5.070312 5.703125 -5.03125 L 5.703125 -3.640625 C 5.703125 -3.597656 5.671875 -3.578125 5.609375 -3.578125 C 5.554688 -3.578125 5.523438 -3.582031 5.515625 -3.59375 C 5.503906 -3.613281 5.492188 -3.632812 5.484375 -3.65625 C 5.472656 -3.6875 5.445312 -3.71875 5.40625 -3.75 C 5.363281 -3.789062 5.289062 -3.832031 5.1875 -3.875 C 5.082031 -3.914062 4.972656 -3.9375 4.859375 -3.9375 L 1.8125 -3.9375 L 1.8125 -0.78125 L 5.015625 -0.78125 C 5.378906 -0.78125 5.601562 -0.8125 5.6875 -0.875 C 5.769531 -0.9375 5.828125 -0.988281 5.859375 -1.03125 C 5.890625 -1.082031 5.914062 -1.109375 5.9375 -1.109375 C 5.957031 -1.109375 5.988281 -1.097656 6.03125 -1.078125 C 6.082031 -1.066406 6.109375 -1.054688 6.109375 -1.046875 C 6.109375 -1.035156 6.082031 -0.972656 6.03125 -0.859375 L 5.875 -0.46875 C 5.820312 -0.320312 5.785156 -0.207031 5.765625 -0.125 C 5.742188 -0.0507812 5.71875 -0.0078125 5.6875 0 L 0.5625 0 C 0.519531 0 0.5 -0.0234375 0.5 -0.078125 C 0.5 -0.140625 0.503906 -0.175781 0.515625 -0.1875 C 0.535156 -0.195312 0.554688 -0.207031 0.578125 -0.21875 C 0.609375 -0.226562 0.644531 -0.253906 0.6875 -0.296875 C 0.726562 -0.335938 0.769531 -0.410156 0.8125 -0.515625 C 0.851562 -0.628906 0.875 -0.738281 0.875 -0.84375 L 0.875 -7.046875 C 0.875 -7.285156 0.800781 -7.484375 0.65625 -7.640625 C 0.632812 -7.648438 0.601562 -7.664062 0.5625 -7.6875 C 0.519531 -7.707031 0.5 -7.742188 0.5 -7.796875 C 0.5 -7.859375 0.519531 -7.890625 0.5625 -7.890625 L 5.6875 -7.890625 C 5.71875 -7.890625 5.742188 -7.847656 5.765625 -7.765625 C 5.785156 -7.691406 5.820312 -7.582031 5.875 -7.4375 L 6.03125 -7.046875 C 6.082031 -6.929688 6.109375 -6.863281 6.109375 -6.84375 C 6.109375 -6.832031 6.082031 -6.816406 6.03125 -6.796875 C 5.988281 -6.785156 5.957031 -6.78125 5.9375 -6.78125 C 5.925781 -6.78125 5.910156 -6.789062 5.890625 -6.8125 C 5.878906 -6.832031 5.863281 -6.851562 5.84375 -6.875 C 5.820312 -6.90625 5.769531 -6.953125 5.6875 -7.015625 C 5.601562 -7.078125 5.378906 -7.109375 5.015625 -7.109375 L 1.8125 -7.109375 L 1.8125 -4.71875 Z M 4.859375 -4.71875 "/></g></g></g><g fill="#f4c87a" fill-opacity="1"><g transform="translate(223.710293, 253.221691)"><g/></g></g><g fill="#f4c87a" fill-opacity="1"><g transform="translate(227.65894, 253.221691)"><g><path d="M 3.578125 -0.8125 C 3.898438 -0.6875 4.210938 -0.625 4.515625 -0.625 C 5.535156 -0.625 6.347656 -0.925781 6.953125 -1.53125 C 7.566406 -2.132812 7.875 -2.945312 7.875 -3.96875 C 7.875 -4.3125 7.785156 -4.675781 7.609375 -5.0625 C 7.429688 -5.445312 7.191406 -5.800781 6.890625 -6.125 C 6.597656 -6.445312 6.234375 -6.710938 5.796875 -6.921875 C 5.367188 -7.128906 4.878906 -7.234375 4.328125 -7.234375 C 3.785156 -7.234375 3.269531 -7.09375 2.78125 -6.8125 C 2.289062 -6.539062 1.914062 -6.160156 1.65625 -5.671875 C 1.394531 -5.179688 1.265625 -4.613281 1.265625 -3.96875 C 1.265625 -3.320312 1.5 -2.695312 1.96875 -2.09375 C 2.4375 -1.488281 2.972656 -1.0625 3.578125 -0.8125 Z M 1.5625 -1.046875 C 1.195312 -1.421875 0.910156 -1.863281 0.703125 -2.375 C 0.492188 -2.894531 0.390625 -3.429688 0.390625 -3.984375 C 0.390625 -4.535156 0.5 -5.0625 0.71875 -5.5625 C 0.945312 -6.0625 1.242188 -6.492188 1.609375 -6.859375 C 1.972656 -7.222656 2.40625 -7.515625 2.90625 -7.734375 C 3.40625 -7.953125 3.898438 -8.0625 4.390625 -8.0625 C 4.890625 -8.0625 5.351562 -8 5.78125 -7.875 C 6.625 -7.613281 7.328125 -7.132812 7.890625 -6.4375 C 8.453125 -5.75 8.734375 -4.9375 8.734375 -4 C 8.734375 -3.457031 8.632812 -2.929688 8.4375 -2.421875 C 8.238281 -1.921875 7.957031 -1.476562 7.59375 -1.09375 C 7.238281 -0.707031 6.785156 -0.398438 6.234375 -0.171875 C 5.691406 0.0546875 5.117188 0.171875 4.515625 0.171875 C 3.910156 0.171875 3.359375 0.0625 2.859375 -0.15625 C 2.359375 -0.375 1.925781 -0.671875 1.5625 -1.046875 Z M 1.5625 -1.046875 "/></g></g></g><g fill="#f4c87a" fill-opacity="1"><g transform="translate(238.256374, 253.221691)"><g><path d="M 0.625 0 C 0.570312 0 0.546875 -0.0234375 0.546875 -0.078125 C 0.546875 -0.140625 0.550781 -0.175781 0.5625 -0.1875 C 0.582031 -0.195312 0.601562 -0.207031 0.625 -0.21875 C 0.65625 -0.226562 0.691406 -0.253906 0.734375 -0.296875 C 0.773438 -0.335938 0.816406 -0.410156 0.859375 -0.515625 C 0.910156 -0.628906 0.9375 -0.738281 0.9375 -0.84375 L 0.9375 -7.046875 C 0.9375 -7.285156 0.859375 -7.484375 0.703125 -7.640625 C 0.691406 -7.648438 0.660156 -7.664062 0.609375 -7.6875 C 0.566406 -7.707031 0.546875 -7.742188 0.546875 -7.796875 C 0.546875 -7.859375 0.570312 -7.890625 0.625 -7.890625 L 5.734375 -7.890625 C 5.765625 -7.890625 5.789062 -7.847656 5.8125 -7.765625 C 5.832031 -7.691406 5.875 -7.582031 5.9375 -7.4375 L 6.078125 -7.046875 C 6.128906 -6.929688 6.15625 -6.863281 6.15625 -6.84375 C 6.15625 -6.832031 6.128906 -6.816406 6.078125 -6.796875 C 6.035156 -6.785156 6.003906 -6.78125 5.984375 -6.78125 C 5.960938 -6.78125 5.9375 -6.800781 5.90625 -6.84375 C 5.875 -6.894531 5.816406 -6.953125 5.734375 -7.015625 C 5.660156 -7.078125 5.4375 -7.109375 5.0625 -7.109375 L 1.859375 -7.109375 L 1.859375 -4.71875 L 4.90625 -4.71875 C 5.144531 -4.71875 5.335938 -4.796875 5.484375 -4.953125 C 5.503906 -4.960938 5.519531 -4.988281 5.53125 -5.03125 C 5.550781 -5.070312 5.59375 -5.09375 5.65625 -5.09375 C 5.71875 -5.09375 5.75 -5.070312 5.75 -5.03125 L 5.75 -3.640625 C 5.75 -3.597656 5.71875 -3.578125 5.65625 -3.578125 C 5.601562 -3.578125 5.570312 -3.582031 5.5625 -3.59375 C 5.550781 -3.613281 5.539062 -3.632812 5.53125 -3.65625 C 5.519531 -3.6875 5.492188 -3.71875 5.453125 -3.75 C 5.410156 -3.789062 5.335938 -3.832031 5.234375 -3.875 C 5.128906 -3.914062 5.019531 -3.9375 4.90625 -3.9375 L 1.859375 -3.9375 L 1.859375 -0.84375 C 1.859375 -0.601562 1.9375 -0.410156 2.09375 -0.265625 C 2.101562 -0.242188 2.128906 -0.222656 2.171875 -0.203125 C 2.210938 -0.191406 2.234375 -0.15625 2.234375 -0.09375 C 2.234375 -0.03125 2.210938 0 2.171875 0 Z M 0.625 0 "/></g></g></g><g fill="#f4c87a" fill-opacity="1"><g transform="translate(246.213565, 253.221691)"><g/></g></g><g fill="#f4c87a" fill-opacity="1"><g transform="translate(250.162211, 253.221691)"><g><path d="M 8.234375 -7.890625 C 8.265625 -7.890625 8.289062 -7.847656 8.3125 -7.765625 C 8.332031 -7.691406 8.375 -7.582031 8.4375 -7.4375 C 8.4375 -7.4375 8.488281 -7.304688 8.59375 -7.046875 C 8.632812 -6.929688 8.65625 -6.863281 8.65625 -6.84375 C 8.65625 -6.832031 8.628906 -6.816406 8.578125 -6.796875 C 8.535156 -6.785156 8.507812 -6.78125 8.5 -6.78125 C 8.476562 -6.78125 8.445312 -6.800781 8.40625 -6.84375 C 8.375 -6.894531 8.316406 -6.953125 8.234375 -7.015625 C 8.148438 -7.078125 7.925781 -7.109375 7.5625 -7.109375 L 4.859375 -7.109375 L 4.859375 -0.84375 C 4.859375 -0.601562 4.9375 -0.410156 5.09375 -0.265625 C 5.101562 -0.242188 5.128906 -0.222656 5.171875 -0.203125 C 5.210938 -0.191406 5.234375 -0.15625 5.234375 -0.09375 C 5.234375 -0.03125 5.210938 0 5.171875 0 L 3.609375 0 C 3.566406 0 3.546875 -0.0234375 3.546875 -0.078125 C 3.546875 -0.140625 3.550781 -0.175781 3.5625 -0.1875 C 3.582031 -0.195312 3.601562 -0.207031 3.625 -0.21875 C 3.65625 -0.226562 3.6875 -0.253906 3.71875 -0.296875 C 3.757812 -0.335938 3.800781 -0.410156 3.84375 -0.515625 C 3.894531 -0.628906 3.921875 -0.738281 3.921875 -0.84375 L 3.921875 -7.109375 L 1.203125 -7.109375 C 0.753906 -7.109375 0.484375 -7.035156 0.390625 -6.890625 C 0.335938 -6.828125 0.300781 -6.789062 0.28125 -6.78125 C 0.269531 -6.78125 0.238281 -6.785156 0.1875 -6.796875 C 0.144531 -6.816406 0.125 -6.832031 0.125 -6.84375 C 0.125 -6.863281 0.144531 -6.929688 0.1875 -7.046875 L 0.34375 -7.4375 C 0.394531 -7.570312 0.429688 -7.675781 0.453125 -7.75 C 0.472656 -7.832031 0.503906 -7.878906 0.546875 -7.890625 Z M 8.234375 -7.890625 "/></g></g></g><g fill="#f4c87a" fill-opacity="1"><g transform="translate(260.412752, 253.221691)"><g><path d="M 0.546875 -0.734375 C 0.546875 -0.734375 1.609375 -3.101562 3.734375 -7.84375 C 3.742188 -7.875 3.816406 -7.890625 3.953125 -7.890625 C 4.097656 -7.890625 4.179688 -7.875 4.203125 -7.84375 L 7.46875 -0.734375 C 7.59375 -0.441406 7.71875 -0.269531 7.84375 -0.21875 C 7.882812 -0.195312 7.90625 -0.15625 7.90625 -0.09375 C 7.90625 -0.03125 7.882812 0 7.84375 0 L 6.09375 0 C 6.050781 0 6.03125 -0.0234375 6.03125 -0.078125 C 6.03125 -0.140625 6.035156 -0.175781 6.046875 -0.1875 C 6.066406 -0.195312 6.085938 -0.207031 6.109375 -0.21875 C 6.140625 -0.226562 6.164062 -0.242188 6.1875 -0.265625 C 6.300781 -0.378906 6.359375 -0.488281 6.359375 -0.59375 C 6.359375 -0.695312 6.347656 -0.785156 6.328125 -0.859375 L 5.625 -2.515625 L 2.15625 -2.515625 L 1.46875 -0.859375 C 1.445312 -0.785156 1.4375 -0.734375 1.4375 -0.703125 L 1.4375 -0.65625 C 1.4375 -0.644531 1.4375 -0.640625 1.4375 -0.640625 C 1.4375 -0.503906 1.5 -0.378906 1.625 -0.265625 C 1.632812 -0.242188 1.660156 -0.222656 1.703125 -0.203125 C 1.742188 -0.191406 1.765625 -0.15625 1.765625 -0.09375 C 1.765625 -0.03125 1.742188 0 1.703125 0 L 0.1875 0 C 0.144531 0 0.125 -0.0234375 0.125 -0.078125 C 0.125 -0.140625 0.128906 -0.175781 0.140625 -0.1875 C 0.148438 -0.195312 0.171875 -0.207031 0.203125 -0.21875 C 0.304688 -0.269531 0.421875 -0.441406 0.546875 -0.734375 Z M 2.5 -3.28125 C 2.488281 -3.269531 2.484375 -3.253906 2.484375 -3.234375 C 2.492188 -3.222656 2.503906 -3.21875 2.515625 -3.21875 L 5.265625 -3.21875 C 5.273438 -3.21875 5.28125 -3.222656 5.28125 -3.234375 C 5.289062 -3.253906 5.289062 -3.269531 5.28125 -3.28125 L 3.890625 -6.3125 L 3.859375 -6.3125 Z M 2.5 -3.28125 "/></g></g></g><g fill="#f4c87a" fill-opacity="1"><g transform="translate(269.916509, 253.221691)"><g><path d="M 1.6875 -0.0625 C 1.582031 -0.0820312 1.472656 -0.109375 1.359375 -0.140625 C 1.242188 -0.179688 1.171875 -0.203125 1.140625 -0.203125 L 1.078125 -0.203125 C 0.960938 -0.203125 0.878906 -0.140625 0.828125 -0.015625 C 0.816406 -0.00390625 0.8125 0 0.8125 0 L 0.671875 0 C 0.648438 0 0.640625 -0.0078125 0.640625 -0.03125 L 0.21875 -1.453125 C 0.207031 -1.515625 0.257812 -1.546875 0.375 -1.546875 C 0.414062 -1.546875 0.441406 -1.535156 0.453125 -1.515625 C 0.472656 -1.503906 0.484375 -1.492188 0.484375 -1.484375 C 0.492188 -1.472656 0.507812 -1.453125 0.53125 -1.421875 C 0.957031 -0.890625 1.582031 -0.625 2.40625 -0.625 C 2.832031 -0.625 3.1875 -0.738281 3.46875 -0.96875 C 3.757812 -1.195312 3.90625 -1.53125 3.90625 -1.96875 C 3.90625 -2.269531 3.859375 -2.492188 3.765625 -2.640625 C 3.671875 -2.785156 3.59375 -2.894531 3.53125 -2.96875 C 3.394531 -3.125 3.082031 -3.335938 2.59375 -3.609375 C 2.113281 -3.890625 1.722656 -4.140625 1.421875 -4.359375 C 0.648438 -4.910156 0.265625 -5.476562 0.265625 -6.0625 C 0.265625 -6.65625 0.445312 -7.113281 0.8125 -7.4375 C 1.175781 -7.757812 1.664062 -7.921875 2.28125 -7.921875 C 2.625 -7.921875 2.984375 -7.828125 3.359375 -7.640625 C 3.535156 -7.554688 3.664062 -7.5 3.75 -7.46875 C 3.832031 -7.445312 3.890625 -7.46875 3.921875 -7.53125 C 3.953125 -7.59375 3.972656 -7.625 3.984375 -7.625 C 4.128906 -7.632812 4.203125 -7.609375 4.203125 -7.546875 L 4.34375 -6 C 4.34375 -5.96875 4.269531 -5.953125 4.125 -5.953125 C 4.101562 -5.953125 4.082031 -5.984375 4.0625 -6.046875 C 3.96875 -6.367188 3.734375 -6.640625 3.359375 -6.859375 C 2.992188 -7.078125 2.628906 -7.1875 2.265625 -7.1875 C 1.492188 -7.1875 1.109375 -6.863281 1.109375 -6.21875 C 1.109375 -5.757812 1.523438 -5.296875 2.359375 -4.828125 L 3.28125 -4.34375 C 3.84375 -4.03125 4.238281 -3.691406 4.46875 -3.328125 C 4.695312 -2.960938 4.8125 -2.578125 4.8125 -2.171875 L 4.8125 -2.125 C 4.726562 -1.570312 4.628906 -1.195312 4.515625 -1 C 4.328125 -0.664062 4.0625 -0.398438 3.71875 -0.203125 C 3.375 -0.00390625 2.984375 0.09375 2.546875 0.09375 C 2.304688 0.0820312 2.109375 0.0546875 1.953125 0.015625 Z M 1.6875 -0.0625 "/></g></g></g><g fill="#f4c87a" fill-opacity="1"><g transform="translate(276.375314, 253.221691)"><g><path d="M 8.234375 -7.890625 C 8.265625 -7.890625 8.289062 -7.847656 8.3125 -7.765625 C 8.332031 -7.691406 8.375 -7.582031 8.4375 -7.4375 C 8.4375 -7.4375 8.488281 -7.304688 8.59375 -7.046875 C 8.632812 -6.929688 8.65625 -6.863281 8.65625 -6.84375 C 8.65625 -6.832031 8.628906 -6.816406 8.578125 -6.796875 C 8.535156 -6.785156 8.507812 -6.78125 8.5 -6.78125 C 8.476562 -6.78125 8.445312 -6.800781 8.40625 -6.84375 C 8.375 -6.894531 8.316406 -6.953125 8.234375 -7.015625 C 8.148438 -7.078125 7.925781 -7.109375 7.5625 -7.109375 L 4.859375 -7.109375 L 4.859375 -0.84375 C 4.859375 -0.601562 4.9375 -0.410156 5.09375 -0.265625 C 5.101562 -0.242188 5.128906 -0.222656 5.171875 -0.203125 C 5.210938 -0.191406 5.234375 -0.15625 5.234375 -0.09375 C 5.234375 -0.03125 5.210938 0 5.171875 0 L 3.609375 0 C 3.566406 0 3.546875 -0.0234375 3.546875 -0.078125 C 3.546875 -0.140625 3.550781 -0.175781 3.5625 -0.1875 C 3.582031 -0.195312 3.601562 -0.207031 3.625 -0.21875 C 3.65625 -0.226562 3.6875 -0.253906 3.71875 -0.296875 C 3.757812 -0.335938 3.800781 -0.410156 3.84375 -0.515625 C 3.894531 -0.628906 3.921875 -0.738281 3.921875 -0.84375 L 3.921875 -7.109375 L 1.203125 -7.109375 C 0.753906 -7.109375 0.484375 -7.035156 0.390625 -6.890625 C 0.335938 -6.828125 0.300781 -6.789062 0.28125 -6.78125 C 0.269531 -6.78125 0.238281 -6.785156 0.1875 -6.796875 C 0.144531 -6.816406 0.125 -6.832031 0.125 -6.84375 C 0.125 -6.863281 0.144531 -6.929688 0.1875 -7.046875 L 0.34375 -7.4375 C 0.394531 -7.570312 0.429688 -7.675781 0.453125 -7.75 C 0.472656 -7.832031 0.503906 -7.878906 0.546875 -7.890625 Z M 8.234375 -7.890625 "/></g></g></g><g fill="#f4c87a" fill-opacity="1"><g transform="translate(286.625855, 253.221691)"><g><path d="M 4.859375 -4.71875 C 5.097656 -4.71875 5.289062 -4.796875 5.4375 -4.953125 C 5.457031 -4.960938 5.472656 -4.988281 5.484375 -5.03125 C 5.503906 -5.070312 5.546875 -5.09375 5.609375 -5.09375 C 5.671875 -5.09375 5.703125 -5.070312 5.703125 -5.03125 L 5.703125 -3.640625 C 5.703125 -3.597656 5.671875 -3.578125 5.609375 -3.578125 C 5.554688 -3.578125 5.523438 -3.582031 5.515625 -3.59375 C 5.503906 -3.613281 5.492188 -3.632812 5.484375 -3.65625 C 5.472656 -3.6875 5.445312 -3.71875 5.40625 -3.75 C 5.363281 -3.789062 5.289062 -3.832031 5.1875 -3.875 C 5.082031 -3.914062 4.972656 -3.9375 4.859375 -3.9375 L 1.8125 -3.9375 L 1.8125 -0.78125 L 5.015625 -0.78125 C 5.378906 -0.78125 5.601562 -0.8125 5.6875 -0.875 C 5.769531 -0.9375 5.828125 -0.988281 5.859375 -1.03125 C 5.890625 -1.082031 5.914062 -1.109375 5.9375 -1.109375 C 5.957031 -1.109375 5.988281 -1.097656 6.03125 -1.078125 C 6.082031 -1.066406 6.109375 -1.054688 6.109375 -1.046875 C 6.109375 -1.035156 6.082031 -0.972656 6.03125 -0.859375 L 5.875 -0.46875 C 5.820312 -0.320312 5.785156 -0.207031 5.765625 -0.125 C 5.742188 -0.0507812 5.71875 -0.0078125 5.6875 0 L 0.5625 0 C 0.519531 0 0.5 -0.0234375 0.5 -0.078125 C 0.5 -0.140625 0.503906 -0.175781 0.515625 -0.1875 C 0.535156 -0.195312 0.554688 -0.207031 0.578125 -0.21875 C 0.609375 -0.226562 0.644531 -0.253906 0.6875 -0.296875 C 0.726562 -0.335938 0.769531 -0.410156 0.8125 -0.515625 C 0.851562 -0.628906 0.875 -0.738281 0.875 -0.84375 L 0.875 -7.046875 C 0.875 -7.285156 0.800781 -7.484375 0.65625 -7.640625 C 0.632812 -7.648438 0.601562 -7.664062 0.5625 -7.6875 C 0.519531 -7.707031 0.5 -7.742188 0.5 -7.796875 C 0.5 -7.859375 0.519531 -7.890625 0.5625 -7.890625 L 5.6875 -7.890625 C 5.71875 -7.890625 5.742188 -7.847656 5.765625 -7.765625 C 5.785156 -7.691406 5.820312 -7.582031 5.875 -7.4375 L 6.03125 -7.046875 C 6.082031 -6.929688 6.109375 -6.863281 6.109375 -6.84375 C 6.109375 -6.832031 6.082031 -6.816406 6.03125 -6.796875 C 5.988281 -6.785156 5.957031 -6.78125 5.9375 -6.78125 C 5.925781 -6.78125 5.910156 -6.789062 5.890625 -6.8125 C 5.878906 -6.832031 5.863281 -6.851562 5.84375 -6.875 C 5.820312 -6.90625 5.769531 -6.953125 5.6875 -7.015625 C 5.601562 -7.078125 5.378906 -7.109375 5.015625 -7.109375 L 1.8125 -7.109375 L 1.8125 -4.71875 Z M 4.859375 -4.71875 "/></g></g></g></svg>